<?xml version="1.0" encoding="UTF-8"?>
<svg id="Layer_1" data-name="Layer 1" xmlns="http://www.w3.org/2000/svg" viewBox="0 0 495.06 184.54">
  <defs>
    <style>
      .cls-1 {
        letter-spacing: -.06em;
      }

      .cls-2 {
        font-size: 35.05px;
      }

      .cls-2, .cls-3, .cls-4, .cls-5 {
        fill: #231f20;
      }

      .cls-2, .cls-4 {
        font-family: Gotham-Black, Gotham;
        font-weight: 800;
      }

      .cls-6 {
        letter-spacing: -.01em;
      }

      .cls-3, .cls-7, .cls-8 {
        fill-rule: evenodd;
      }

      .cls-7 {
        fill: #af1f8e;
      }

      .cls-9 {
        letter-spacing: 0em;
      }

      .cls-10 {
        letter-spacing: -.02em;
      }

      .cls-11 {
        letter-spacing: -.03em;
      }

      .cls-4 {
        font-size: 38.48px;
      }

      .cls-12 {
        letter-spacing: 0em;
      }

      .cls-8 {
        fill: #49439b;
      }
    </style>
  </defs>
  <text class="cls-4" transform="translate(0 172.46)"><tspan x="0" y="0" xml:space="preserve">  H</tspan><tspan class="cls-12" x="50.6" y="0">A</tspan><tspan x="80.8" y="0">S T</tspan><tspan class="cls-6" x="141.94" y="0">R</tspan><tspan class="cls-9" x="169.11" y="0">ANSFORMED </tspan><tspan class="cls-11" x="438.84" y="0">T</tspan><tspan x="463.08" y="0">O</tspan></text>
  <text class="cls-2" transform="translate(105.52 29.79)"><tspan class="cls-1" x="0" y="0">Y</tspan><tspan x="23.06" y="0">OUR TRU</tspan><tspan class="cls-10" x="188.55" y="0">S</tspan><tspan x="210.7" y="0">TED</tspan></text>
  <g>
    <path class="cls-8" d="m359.33,107.25h1.89c3.94,0,6.88-.2,8.8-.63,1.89-.46,3.64-1.16,5.16-2.18,2.28-1.55,4.07-3.57,5.42-6.12,1.32-2.51,2.12-5.49,2.48-8.93.5-5.03-.1-8.7-1.69-11.01-1.59-2.35-4.33-3.54-8.2-3.54h-9.62l-3.08,21.86c-.1.93-.3,2.31-.5,4.2-.26,1.89-.46,3.97-.66,6.35h0Zm-21.1,13.92c1.55-7.54,3.04-16.5,4.56-26.72,1.49-10.22,2.88-21.4,4.23-33.57h28.84c5.75,0,9.86.3,12.27.96,2.48.6,4.56,1.62,6.35,3.08,3.04,2.48,5.23,5.69,6.52,9.72,1.29,4.03,1.69,8.7,1.19,13.96-.99,10.62-4.66,18.65-11.01,24.27-6.42,5.52-15.15,8.3-26.32,8.3h-26.62Z"/>
    <polygon class="cls-7" points="330.29 104.08 314.52 104.08 316.6 90.59 332.34 90.59 330.29 104.08"/>
    <path class="cls-7" d="m256.51,121.18l2.08-14.32,32.81-32.84h-18.72c-.5,0-1.19.03-2.12.1-.96.03-2.78.2-5.56.33l1.98-13.56h47.36l-2.08,13.86-32.81,32.97h17.83c.63,0,1.79-.07,3.51-.17,1.75-.1,3.97-.2,6.81-.4l-2.15,14.02h-48.95Z"/>
    <path class="cls-7" d="m202.07,121.18c1.49-7.41,2.94-16.14,4.43-26.23,1.46-10.02,2.84-21.4,4.23-34.06h47.89l-2.02,13.96c-2.45-.1-4.53-.2-6.35-.3-1.85-.03-3.08-.1-3.74-.1l-18.92.07c-.43,2.31-.73,4-.89,5.16-.2,1.12-.3,2.12-.4,3.11l-.1,1.16h15.44c2.05,0,3.84-.07,5.42-.1,1.59-.07,3.08-.17,4.4-.26l-2.02,14.15c-.99-.03-2.05-.13-3.14-.13-1.12-.07-2.81-.07-5.16-.07h-16.97c-.3,1.26-.56,2.45-.76,3.64-.2,1.19-.33,2.41-.5,3.6-.07.69-.1,1.26-.1,1.59-.07.36-.07.66-.07.96,1.72.2,3.6.33,5.59.43,1.98.1,4.46.17,7.34.17,3.08,0,5.95-.1,8.73-.2,2.84-.1,5.46-.3,7.9-.56l-2.05,14.02h-48.22Z"/>
    <path class="cls-7" d="m159.28,60.89c0,.86.1,1.75.17,2.68.03.99.13,2.08.23,3.44l3.17,32.61,12.57-30.62c.69-1.69,1.29-3.17,1.79-4.43.5-1.22.96-2.48,1.36-3.67h25.4c-.43,3.14-.93,6.71-1.49,10.72-.1.86-.2,1.46-.2,1.82l-4.46,34.39c-.03.3-.1.83-.2,1.69-.1.86-.2,1.49-.23,2.05-.1,1.29-.26,2.71-.36,4.37-.1,1.62-.2,3.37-.3,5.26h-17.63c.36-1.55.69-3.24,1.06-4.96.3-1.75.6-3.54.83-5.36l3.08-21.03c.07-.43.3-2.31.69-5.69.46-3.34.79-6.32,1.16-8.83l-16.63,38.56c-.76,1.79-1.36,3.17-1.75,4.27-.4.99-.79,2.05-1.09,3.04h-14.62c-.07-.89-.1-1.89-.17-2.94-.1-1.09-.2-2.22-.36-3.51l-4.5-39.09-5.23,29.43c-.3,1.79-.63,4-1.03,6.52-.4,2.55-.86,5.72-1.39,9.59h-15.74c1.82-7.34,3.67-16.2,5.56-26.36,1.82-10.25,3.67-21.56,5.42-33.93h24.9Z"/>
    <path class="cls-3" d="m323.25,53.68c2.88,0,5.26,2.35,5.26,5.23s-2.38,5.23-5.26,5.23-5.32-2.35-5.32-5.23,2.38-5.23,5.32-5.23h0Zm0,.66c2.51,0,4.6,2.05,4.6,4.56s-2.08,4.56-4.6,4.56-4.73-2.02-4.73-4.56,2.15-4.56,4.73-4.56h0Z"/>
    <path class="cls-5" d="m321.79,58.57h1.65c.33,0,.63-.07.83-.1.2-.07.36-.2.46-.36.1-.13.13-.33.13-.5,0-.3-.1-.5-.3-.69-.2-.13-.5-.23-.93-.23h-1.85v1.89Zm-.79,3.21v-5.75h2.58c.56,0,.96.07,1.19.17.3.1.5.3.66.53.2.26.23.56.23.89,0,.4-.1.76-.4.99-.23.3-.69.5-1.22.56.2.1.33.2.5.3.2.2.4.43.6.73l1.03,1.59h-.99l-.73-1.19c-.26-.33-.46-.63-.6-.79-.1-.2-.26-.3-.36-.4-.13-.03-.23-.1-.4-.13-.03,0-.2-.07-.4-.07h-.89v2.58h-.79Z"/>
    <path class="cls-7" d="m73.92,91.05c-.53,5.85.36,10.22,2.74,13.1,2.38,2.91,6.25,4.37,11.57,4.37s9.13-1.59,12.27-4.83c3.08-3.17,4.86-7.67,5.46-13.56.5-5.39-.46-9.52-2.94-12.34-2.41-2.78-6.25-4.23-11.48-4.23s-9.06,1.55-12.2,4.63c-3.08,3.08-4.93,7.34-5.42,12.86h0Zm12.24,31.42c-10.95,0-19.18-2.65-24.67-7.94-5.52-5.32-7.8-12.73-6.91-22.29.93-10.15,4.8-18.12,11.61-23.94,6.81-5.75,15.64-8.63,26.62-8.63s19.81,2.58,25.43,7.77c5.56,5.23,7.87,12.67,6.98,22.39-.99,10.25-4.89,18.29-11.77,24.04-6.85,5.75-15.97,8.6-27.28,8.6h0Z"/>
    <path class="cls-3" d="m431.32,110.89c1.26.1,2.48,0,3.24,1.06.83,1.09.53,2.88.5,4.86-.07,1.32.1,2.78.13,4.07h3.34c-.46-2.08-.36-4.43-.36-6.61.07-2.48-.1-3.9-2.68-4.56v-.03c2.74-.6,4.7-2.65,5.09-5.32.69-4.37-3.01-5.52-6.78-5.52h-8.04l-3.47,22.06h3.08l1.59-9.99h4.37Zm-2.91-9.43h5.16c3.41.13,3.9,1.69,3.67,3.41-.3,1.75-1.29,3.27-4.76,3.44h-5.16l1.09-6.85Zm-26.79,12.96c-.89,4.96,2.22,6.88,6.91,6.88s9.39-1.72,10.19-6.75c.89-5.56-4.76-5.56-8.7-6.91-1.82-.6-3.6-.73-3.21-3.27.4-2.58,3.57-3.37,5.75-3.37s4.2.86,3.97,3.34h3.21c.69-4.33-2.78-5.95-6.58-5.95-4.23,0-8.93,1.72-9.69,6.55-.79,4.96,5.23,5.75,8.8,6.55,1.82.4,3.47,1.26,3.11,3.37-.5,3.14-3.7,3.84-6.25,3.84-3.01,0-4.66-1.16-4.2-4.27h-3.31Z"/>
  </g>
</svg>