<?xml version="1.0" encoding="UTF-8"?>
<svg id="Layer_1" data-name="Layer 1" xmlns="http://www.w3.org/2000/svg" viewBox="0 0 486.64 209.73">
  <defs>
    <style>
      .cls-1 {
        letter-spacing: -.06em;
      }

      .cls-2 {
        letter-spacing: -.01em;
      }

      .cls-3 {
        font-size: 43.73px;
      }

      .cls-3, .cls-4, .cls-5, .cls-6 {
        fill: #231f20;
      }

      .cls-3, .cls-6 {
        font-family: Gotham-Black, Gotham;
        font-weight: 800;
      }

      .cls-4, .cls-7, .cls-8 {
        fill-rule: evenodd;
      }

      .cls-7 {
        fill: #af1f8e;
      }

      .cls-9 {
        letter-spacing: 0em;
      }

      .cls-10 {
        letter-spacing: -.02em;
      }

      .cls-8 {
        fill: #49439b;
      }

      .cls-6 {
        font-size: 39.83px;
      }
    </style>
  </defs>
  <text class="cls-3" transform="translate(0 196)"><tspan x="0" y="0" xml:space="preserve">  H</tspan><tspan class="cls-9" x="57.51" y="0">A</tspan><tspan x="91.84" y="0">S T</tspan><tspan class="cls-2" x="161.32" y="0">R</tspan><tspan x="192.2" y="0">ANSFORMED</tspan></text>
  <text class="cls-6" transform="translate(81.92 33.86)"><tspan class="cls-1" x="0" y="0">Y</tspan><tspan x="26.21" y="0">OUR TRU</tspan><tspan class="cls-10" x="214.3" y="0">S</tspan><tspan x="239.47" y="0">TED</tspan></text>
  <g>
    <path class="cls-8" d="m367.54,120.41h2.09c4.37,0,7.64-.22,9.77-.7,2.09-.51,4.04-1.29,5.73-2.43,2.54-1.73,4.52-3.97,6.03-6.8,1.47-2.79,2.35-6.1,2.76-9.92.55-5.59-.11-9.66-1.87-12.24-1.76-2.61-4.81-3.93-9.11-3.93h-10.69l-3.42,24.29c-.11,1.03-.33,2.57-.55,4.67-.29,2.09-.51,4.41-.73,7.06h0Zm-23.44,15.47c1.73-8.38,3.38-18.34,5.07-29.69,1.65-11.35,3.2-23.77,4.7-37.3h32.04c6.39,0,10.95.33,13.63,1.07,2.76.66,5.07,1.8,7.06,3.42,3.38,2.76,5.81,6.32,7.24,10.8,1.43,4.48,1.87,9.66,1.32,15.51-1.1,11.8-5.18,20.72-12.24,26.97-7.13,6.14-16.83,9.22-29.25,9.22h-29.58Z"/>
    <polygon class="cls-7" points="335.28 116.88 317.75 116.88 320.07 101.89 337.56 101.89 335.28 116.88"/>
    <path class="cls-7" d="m253.3,135.88l2.31-15.91,36.45-36.49h-20.8c-.55,0-1.32.04-2.35.11-1.07.04-3.09.22-6.17.37l2.2-15.07h52.62l-2.31,15.4-36.45,36.64h19.81c.7,0,1.98-.07,3.9-.18,1.95-.11,4.41-.22,7.57-.44l-2.39,15.58h-54.38Z"/>
    <path class="cls-7" d="m192.82,135.88c1.65-8.23,3.27-17.93,4.92-29.14,1.62-11.13,3.16-23.77,4.7-37.85h53.21l-2.24,15.51c-2.72-.11-5.03-.22-7.06-.33-2.06-.04-3.42-.11-4.15-.11l-21.02.07c-.48,2.57-.81,4.45-.99,5.73-.22,1.25-.33,2.35-.44,3.45l-.11,1.29h17.16c2.28,0,4.26-.07,6.03-.11,1.76-.07,3.42-.18,4.89-.29l-2.24,15.73c-1.1-.04-2.28-.15-3.49-.15-1.25-.07-3.12-.07-5.73-.07h-18.85c-.33,1.4-.62,2.72-.85,4.04-.22,1.32-.37,2.68-.55,4.01-.07.77-.11,1.4-.11,1.76-.07.4-.07.73-.07,1.07,1.91.22,4.01.37,6.21.48,2.2.11,4.96.18,8.16.18,3.42,0,6.61-.11,9.7-.22,3.16-.11,6.06-.33,8.78-.62l-2.28,15.58h-53.58Z"/>
    <path class="cls-7" d="m145.27,68.89c0,.96.11,1.95.18,2.98.04,1.1.15,2.31.26,3.82l3.53,36.23,13.96-34.03c.77-1.87,1.43-3.53,1.98-4.92.55-1.36,1.07-2.76,1.51-4.08h28.22c-.48,3.49-1.03,7.46-1.65,11.91-.11.96-.22,1.62-.22,2.02l-4.96,38.22c-.04.33-.11.92-.22,1.87-.11.96-.22,1.65-.26,2.28-.11,1.43-.29,3.01-.4,4.85-.11,1.8-.22,3.75-.33,5.84h-19.59c.4-1.73.77-3.6,1.18-5.51.33-1.95.66-3.93.92-5.95l3.42-23.37c.07-.48.33-2.57.77-6.32.51-3.71.88-7.02,1.29-9.81l-18.48,42.85c-.85,1.98-1.51,3.53-1.95,4.74-.44,1.1-.88,2.28-1.21,3.38h-16.24c-.07-.99-.11-2.09-.18-3.27-.11-1.21-.22-2.46-.4-3.9l-5-43.43-5.81,32.7c-.33,1.98-.7,4.45-1.14,7.24-.44,2.83-.96,6.36-1.54,10.66h-17.49c2.02-8.16,4.08-18.01,6.17-29.29,2.02-11.39,4.08-23.96,6.03-37.7h27.67Z"/>
    <path class="cls-4" d="m327.45,60.88c3.2,0,5.84,2.61,5.84,5.81s-2.65,5.81-5.84,5.81-5.92-2.61-5.92-5.81,2.65-5.81,5.92-5.81h0Zm0,.73c2.79,0,5.11,2.28,5.11,5.07s-2.31,5.07-5.11,5.07-5.25-2.24-5.25-5.07,2.39-5.07,5.25-5.07h0Z"/>
    <path class="cls-5" d="m325.84,66.32h1.84c.37,0,.7-.07.92-.11.22-.07.4-.22.51-.4.11-.15.15-.37.15-.55,0-.33-.11-.55-.33-.77-.22-.15-.55-.26-1.03-.26h-2.06v2.09Zm-.88,3.56v-6.39h2.87c.62,0,1.07.07,1.32.18.33.11.55.33.73.59.22.29.26.62.26.99,0,.44-.11.85-.44,1.1-.26.33-.77.55-1.36.62.22.11.37.22.55.33.22.22.44.48.66.81l1.14,1.76h-1.1l-.81-1.32c-.29-.37-.51-.7-.66-.88-.11-.22-.29-.33-.4-.44-.15-.04-.26-.11-.44-.15-.04,0-.22-.07-.44-.07h-.99v2.87h-.88Z"/>
    <path class="cls-7" d="m50.43,102.4c-.59,6.5.4,11.35,3.05,14.55,2.65,3.23,6.94,4.85,12.86,4.85s10.14-1.76,13.63-5.36c3.42-3.53,5.4-8.53,6.06-15.07.55-5.99-.51-10.58-3.27-13.71-2.68-3.09-6.94-4.7-12.75-4.7s-10.07,1.73-13.56,5.14c-3.42,3.42-5.48,8.16-6.03,14.29h0Zm13.6,34.91c-12.16,0-21.31-2.94-27.41-8.82-6.14-5.92-8.67-14.15-7.68-24.77,1.03-11.28,5.33-20.14,12.9-26.6,7.57-6.39,17.38-9.59,29.58-9.59s22.01,2.87,28.26,8.64c6.17,5.81,8.75,14.07,7.75,24.88-1.1,11.39-5.44,20.32-13.08,26.71-7.61,6.39-17.75,9.55-30.32,9.55h0Z"/>
    <path class="cls-4" d="m447.54,124.45c1.4.11,2.76,0,3.6,1.18.92,1.21.59,3.2.55,5.4-.07,1.47.11,3.09.15,4.52h3.71c-.51-2.31-.4-4.92-.4-7.35.07-2.76-.11-4.34-2.98-5.07v-.04c3.05-.66,5.22-2.94,5.66-5.92.77-4.85-3.34-6.14-7.53-6.14h-8.93l-3.86,24.51h3.42l1.76-11.1h4.85Zm-3.23-10.47h5.73c3.78.15,4.34,1.87,4.08,3.78-.33,1.95-1.43,3.64-5.29,3.82h-5.73l1.21-7.61Zm-29.76,14.4c-.99,5.51,2.46,7.64,7.68,7.64s10.44-1.91,11.32-7.5c.99-6.17-5.29-6.17-9.66-7.68-2.02-.66-4.01-.81-3.56-3.64.44-2.87,3.97-3.75,6.39-3.75s4.67.96,4.41,3.71h3.56c.77-4.81-3.09-6.61-7.31-6.61-4.7,0-9.92,1.91-10.77,7.28-.88,5.51,5.81,6.39,9.77,7.28,2.02.44,3.86,1.4,3.45,3.75-.55,3.49-4.12,4.26-6.94,4.26-3.34,0-5.18-1.29-4.67-4.74h-3.67Z"/>
  </g>
</svg>