<?xml version="1.0" encoding="UTF-8"?>
<svg id="Layer_1" data-name="Layer 1" xmlns="http://www.w3.org/2000/svg" viewBox="0 0 549.04 185.97">
  <defs>
    <style>
      .cls-1 {
        font-family: Gotham-Bold, Gotham;
        font-size: 32.26px;
        font-weight: 700;
      }

      .cls-1, .cls-2, .cls-3 {
        fill: #231f20;
      }

      .cls-2, .cls-4, .cls-5 {
        fill-rule: evenodd;
      }

      .cls-4 {
        fill: #ab218e;
      }

      .cls-5 {
        fill: #49439b;
      }
    </style>
  </defs>
  <text class="cls-1" transform="translate(19.23 176.39)"><tspan x="0" y="0">Powerful comprehensive relief </tspan></text>
  <g>
    <path class="cls-5" d="m433.43,83.44h2.68c5.59,0,9.78-.28,12.5-.89,2.68-.66,5.17-1.65,7.33-3.1,3.24-2.21,5.78-5.08,7.71-8.7,1.88-3.57,3.01-7.8,3.53-12.69.71-7.14-.14-12.36-2.4-15.65-2.26-3.34-6.16-5.03-11.66-5.03h-13.68l-4.37,31.07c-.14,1.32-.42,3.29-.71,5.97-.38,2.68-.66,5.64-.94,9.03h0Zm-29.99,19.79c2.21-10.72,4.32-23.46,6.49-37.98,2.12-14.52,4.09-30.41,6.02-47.71h40.99c8.18,0,14.01.42,17.44,1.36,3.53.85,6.49,2.3,9.03,4.37,4.32,3.53,7.43,8.09,9.26,13.82,1.83,5.73,2.4,12.36,1.69,19.84-1.41,15.09-6.63,26.51-15.65,34.5-9.12,7.85-21.53,11.8-37.42,11.8h-37.84Z"/>
    <polygon class="cls-4" points="392.16 78.92 369.74 78.92 372.7 59.74 395.07 59.74 392.16 78.92"/>
    <path class="cls-4" d="m287.29,103.23l2.96-20.35,46.63-46.68h-26.61c-.71,0-1.69.05-3.01.14-1.36.05-3.95.28-7.9.47l2.82-19.27h67.31l-2.96,19.7-46.63,46.87h25.34c.89,0,2.54-.09,4.98-.24,2.49-.14,5.64-.28,9.68-.56l-3.06,19.93h-69.57Z"/>
    <path class="cls-4" d="m209.92,103.23c2.12-10.53,4.18-22.94,6.3-37.28,2.07-14.24,4.04-30.41,6.02-48.42h68.07l-2.87,19.84c-3.48-.14-6.44-.28-9.03-.42-2.63-.05-4.37-.14-5.31-.14l-26.89.09c-.61,3.29-1.03,5.69-1.27,7.33-.28,1.6-.42,3.01-.56,4.42l-.14,1.65h21.95c2.91,0,5.45-.09,7.71-.14,2.26-.09,4.37-.24,6.25-.38l-2.87,20.12c-1.41-.05-2.91-.19-4.47-.19-1.6-.09-4-.09-7.33-.09h-24.11c-.42,1.79-.8,3.48-1.08,5.17-.28,1.69-.47,3.43-.71,5.12-.09.99-.14,1.79-.14,2.26-.09.52-.09.94-.09,1.36,2.44.28,5.12.47,7.94.61,2.82.14,6.35.24,10.44.24,4.37,0,8.46-.14,12.41-.28,4.04-.14,7.76-.42,11.23-.8l-2.91,19.93h-68.54Z"/>
    <path class="cls-4" d="m149.09,17.53c0,1.22.14,2.49.24,3.81.05,1.41.19,2.96.33,4.89l4.51,46.35,17.86-43.53c.99-2.4,1.83-4.51,2.54-6.3.71-1.74,1.36-3.53,1.93-5.22h36.1c-.61,4.47-1.32,9.54-2.12,15.23-.14,1.22-.28,2.07-.28,2.59l-6.35,48.89c-.05.42-.14,1.18-.28,2.4-.14,1.22-.28,2.12-.33,2.91-.14,1.83-.38,3.85-.52,6.2-.14,2.3-.28,4.79-.42,7.47h-25.05c.52-2.21.99-4.61,1.5-7.05.42-2.49.85-5.03,1.18-7.62l4.37-29.9c.09-.61.42-3.29.99-8.09.66-4.75,1.13-8.98,1.65-12.55l-23.64,54.81c-1.08,2.54-1.93,4.51-2.49,6.06-.56,1.41-1.13,2.91-1.55,4.32h-20.78c-.09-1.27-.14-2.68-.24-4.18-.14-1.55-.28-3.15-.52-4.98l-6.39-55.56-7.43,41.84c-.42,2.54-.89,5.69-1.46,9.26-.56,3.62-1.22,8.13-1.97,13.63h-22.37c2.59-10.44,5.22-23.03,7.9-37.46,2.59-14.57,5.22-30.65,7.71-48.23h35.4Z"/>
    <path class="cls-2" d="m382.15,7.29c4.09,0,7.47,3.34,7.47,7.43s-3.38,7.43-7.47,7.43-7.57-3.34-7.57-7.43,3.38-7.43,7.57-7.43h0Zm0,.94c3.57,0,6.53,2.91,6.53,6.49s-2.96,6.49-6.53,6.49-6.72-2.87-6.72-6.49,3.06-6.49,6.72-6.49h0Z"/>
    <path class="cls-3" d="m380.08,14.24h2.35c.47,0,.89-.09,1.18-.14.28-.09.52-.28.66-.52.14-.19.19-.47.19-.71,0-.42-.14-.71-.42-.99-.28-.19-.71-.33-1.32-.33h-2.63v2.68Zm-1.13,4.56v-8.18h3.67c.8,0,1.36.09,1.69.24.42.14.71.42.94.75.28.38.33.8.33,1.27,0,.56-.14,1.08-.56,1.41-.33.42-.99.71-1.74.8.28.14.47.28.71.42.28.28.56.61.85,1.03l1.46,2.26h-1.41l-1.03-1.69c-.38-.47-.66-.89-.85-1.13-.14-.28-.38-.42-.52-.56-.19-.05-.33-.14-.56-.19-.05,0-.28-.09-.56-.09h-1.27v3.67h-1.13Z"/>
    <path class="cls-4" d="m27.77,60.4c-.75,8.32.52,14.52,3.9,18.61,3.38,4.14,8.88,6.2,16.45,6.2s12.97-2.26,17.44-6.86c4.37-4.51,6.91-10.91,7.76-19.27.71-7.66-.66-13.54-4.18-17.53-3.43-3.95-8.88-6.02-16.31-6.02s-12.88,2.21-17.35,6.58c-4.37,4.37-7,10.44-7.71,18.29h0Zm17.39,44.66c-15.56,0-27.26-3.76-35.07-11.28C2.24,86.21-1,75.68.27,62.1c1.32-14.43,6.82-25.76,16.5-34.03,9.68-8.18,22.23-12.27,37.84-12.27s28.16,3.67,36.15,11.05c7.9,7.43,11.19,18,9.92,31.82-1.41,14.57-6.96,25.99-16.73,34.17-9.73,8.18-22.7,12.22-38.78,12.22h0Z"/>
    <path class="cls-2" d="m535.76,88.61c1.79.14,3.53,0,4.61,1.5,1.18,1.55.75,4.09.71,6.91-.09,1.88.14,3.95.19,5.78h4.75c-.66-2.96-.52-6.3-.52-9.4.09-3.53-.14-5.55-3.81-6.49v-.05c3.9-.85,6.67-3.76,7.24-7.57.99-6.2-4.28-7.85-9.64-7.85h-11.42l-4.94,31.35h4.37l2.26-14.2h6.2Zm-4.14-13.4h7.33c4.84.19,5.55,2.4,5.22,4.84-.42,2.49-1.83,4.65-6.77,4.89h-7.33l1.55-9.73Zm-38.08,18.43c-1.27,7.05,3.15,9.78,9.82,9.78s13.35-2.44,14.48-9.59c1.27-7.9-6.77-7.9-12.36-9.82-2.59-.85-5.12-1.03-4.56-4.65.56-3.67,5.08-4.79,8.18-4.79s5.97,1.22,5.64,4.75h4.56c.99-6.16-3.95-8.46-9.35-8.46-6.02,0-12.69,2.44-13.77,9.31-1.13,7.05,7.43,8.18,12.5,9.31,2.59.56,4.94,1.79,4.42,4.79-.71,4.47-5.26,5.45-8.88,5.45-4.28,0-6.63-1.65-5.97-6.06h-4.7Z"/>
    <g>
      <path class="cls-3" d="m7.51,123.49l-.19,1.41H.46l1.69-12.83h6.58l-.14,1.41H3.46l-.52,3.81h5.12l-.19,1.36H2.81l-.66,4.84h5.36Zm1.46.24l.89-1.03c.28.47.61.8.99,1.03.38.24.8.38,1.27.38s.89-.14,1.18-.38c.28-.24.42-.52.42-.94s-.42-.85-1.22-1.22c-.24-.09-.38-.14-.52-.24-.75-.38-1.27-.71-1.5-1.03-.24-.28-.38-.71-.38-1.18,0-.75.28-1.32.8-1.83.56-.47,1.27-.71,2.12-.71.52,0,1.03.09,1.46.33.47.19.89.47,1.27.85l-.85,1.03c-.24-.33-.56-.56-.89-.75-.33-.14-.71-.24-1.08-.24-.42,0-.75.09-1.03.33-.28.24-.42.52-.42.85,0,.42.47.85,1.5,1.27l.14.05c.75.33,1.32.71,1.55,1.03.28.33.42.75.42,1.27,0,.85-.28,1.46-.8,1.93-.52.47-1.22.71-2.16.71-.66,0-1.27-.14-1.79-.38-.52-.24-.94-.61-1.36-1.13h0Zm12.22-6.02c-.89,0-1.65.33-2.21.99s-.85,1.46-.85,2.49c0,.89.24,1.6.75,2.12.47.56,1.13.8,1.97.8s1.6-.28,2.16-.94c.56-.66.85-1.5.85-2.49,0-.85-.24-1.55-.75-2.12-.52-.56-1.13-.85-1.93-.85h0Zm-4.47,3.53c0-1.32.42-2.44,1.32-3.34.85-.85,1.93-1.32,3.2-1.32,1.18,0,2.12.38,2.87,1.13.8.71,1.18,1.65,1.18,2.73,0,1.41-.42,2.59-1.27,3.48-.85.89-1.93,1.32-3.24,1.32-1.22,0-2.21-.38-2.91-1.08-.75-.75-1.13-1.74-1.13-2.91h0Zm15.04,3.67l.66-4.94c.05-.09.05-.24.05-.38v-.33c0-.52-.09-.85-.38-1.13-.24-.24-.61-.38-1.08-.38-.61,0-1.13.28-1.5.8-.38.52-.61,1.27-.75,2.3l-.56,4.04h-1.36l1.08-8.04h1.32l-.19,1.27c.38-.52.8-.89,1.22-1.18.47-.24.94-.38,1.5-.38.52,0,.99.14,1.36.42.38.24.61.61.75,1.08.38-.47.85-.85,1.32-1.13.47-.24.99-.38,1.5-.38.71,0,1.22.24,1.65.66.38.42.56.99.56,1.69,0,.19,0,.42-.05.8v.09l-.66,5.08h-1.41l.66-4.94c0-.09,0-.24.05-.38v-.33c0-.52-.14-.85-.38-1.13-.24-.24-.61-.38-1.13-.38-.61,0-1.13.28-1.5.75-.38.47-.61,1.27-.75,2.35l-.52,4.04h-1.46Zm16.73-3.81l-6.39.05v.14c0,.85.24,1.5.66,2.02.42.47,1.03.75,1.79.75.47,0,.89-.14,1.32-.38.38-.24.8-.56,1.13-1.03l.99.75c-.47.61-.99,1.08-1.55,1.36-.56.33-1.18.47-1.83.47-1.18,0-2.12-.38-2.82-1.08-.71-.71-1.08-1.69-1.08-2.91,0-1.32.42-2.44,1.22-3.34.85-.85,1.83-1.32,3.1-1.32,1.08,0,1.97.33,2.59,1.03.61.66.94,1.65.94,2.87v.38c0,.09,0,.19-.05.24h0Zm-1.32-1.13c0-.71-.19-1.27-.56-1.65-.42-.42-.94-.61-1.65-.61-.66,0-1.27.24-1.79.61-.47.42-.8.99-.99,1.65h4.98Zm7.43-2.07c-.8,0-1.46.33-1.97.99-.56.61-.85,1.41-.85,2.4,0,.8.24,1.46.66,1.93.42.52.99.75,1.65.75.89,0,1.65-.33,2.21-.94.56-.61.85-1.41.85-2.4,0-.8-.24-1.46-.71-1.97-.47-.52-1.08-.75-1.83-.75h0Zm-5.22,10.91l1.6-11.94h1.36l-.19,1.27c.42-.52.85-.89,1.32-1.18.47-.24,1.03-.38,1.6-.38,1.03,0,1.88.38,2.49,1.13.66.75.99,1.74.99,2.91,0,1.27-.38,2.4-1.18,3.24-.75.89-1.74,1.32-2.91,1.32-.71,0-1.32-.14-1.79-.47-.47-.28-.85-.75-1.13-1.41l-.71,5.5h-1.46Zm15.79-10.62c-.14-.05-.28-.14-.42-.19-.19,0-.33-.05-.47-.05-.66,0-1.13.28-1.46.8-.38.47-.61,1.27-.8,2.35l-.47,3.81h-1.36l1.03-8.04h1.41l-.24,1.27c.38-.52.75-.94,1.13-1.18.38-.24.75-.38,1.22-.38.14,0,.28.05.38.05.14.05.28.09.42.14l-.38,1.41Zm4.89,5.78c.8,0,1.46-.33,1.97-.99.56-.66.85-1.46.85-2.4,0-.85-.24-1.5-.66-1.97-.42-.52-.99-.75-1.65-.75-.89,0-1.6.28-2.21.94-.56.61-.85,1.41-.85,2.4,0,.8.24,1.5.71,1.97.47.52,1.08.8,1.83.8h0Zm3.34-7.1h1.36l-1.03,8.04h-1.41l.19-1.22c-.38.52-.8.94-1.27,1.18-.52.24-1.03.38-1.65.38-1.03,0-1.88-.38-2.49-1.13-.66-.75-.99-1.74-.99-2.91,0-1.32.42-2.44,1.18-3.29.8-.89,1.79-1.32,2.96-1.32.71,0,1.32.19,1.79.47.47.33.85.8,1.13,1.46l.24-1.65Zm2.21,8.04l5.17-6.86h-4.09l.14-1.18h6.3l-5.03,6.82h4.14l-.14,1.22h-6.49Zm12.74-7.19c-.85,0-1.6.33-2.16.99-.56.66-.89,1.46-.89,2.49,0,.89.28,1.6.75,2.12.52.56,1.18.8,1.97.8.89,0,1.6-.28,2.21-.94.56-.66.85-1.5.85-2.49,0-.85-.24-1.55-.75-2.12-.52-.56-1.18-.85-1.97-.85h0Zm-4.42,3.53c0-1.32.42-2.44,1.27-3.34.89-.85,1.93-1.32,3.24-1.32,1.13,0,2.12.38,2.87,1.13.75.71,1.13,1.65,1.13,2.73,0,1.41-.42,2.59-1.22,3.48-.85.89-1.93,1.32-3.24,1.32-1.22,0-2.21-.38-2.96-1.08-.71-.75-1.08-1.74-1.08-2.91h0Zm11.52,3.67h-1.41l1.79-13.58h1.41l-1.79,13.58Zm10.48-3.81l-6.39.05v.14c0,.85.19,1.5.66,2.02.42.47,1.03.75,1.79.75.47,0,.89-.14,1.32-.38.38-.24.75-.56,1.13-1.03l.99.75c-.47.61-.99,1.08-1.55,1.36-.56.33-1.18.47-1.83.47-1.22,0-2.16-.38-2.87-1.08-.71-.71-1.03-1.69-1.03-2.91,0-1.32.42-2.44,1.22-3.34.8-.85,1.83-1.32,3.06-1.32,1.13,0,2.02.33,2.63,1.03.61.66.94,1.65.94,2.87,0,.19,0,.28-.05.38v.24h0Zm-1.32-1.13c0-.71-.24-1.27-.61-1.65-.38-.42-.89-.61-1.6-.61s-1.27.24-1.79.61c-.52.42-.85.99-.99,1.65h4.98Zm12.79,4.94l.38-2.91h-5.83v-.24l7.85-9.82h.75l-1.13,8.84h1.5l-.19,1.22h-1.5l-.38,2.91h-1.46Zm.56-4.14l.89-5.88-4.61,5.88h3.71Zm14.05-3.76c0,1.22-.14,2.35-.42,3.38-.28,1.08-.66,1.97-1.18,2.73-.42.71-.99,1.22-1.6,1.6-.61.33-1.27.52-1.97.52-1.22,0-2.12-.42-2.77-1.32-.66-.85-.99-2.12-.99-3.76,0-1.18.14-2.3.38-3.38.28-1.03.66-1.97,1.18-2.73.42-.71.94-1.22,1.55-1.55.61-.38,1.27-.56,2.02-.56,1.22,0,2.16.47,2.82,1.32.66.89.99,2.16.99,3.76h0Zm-3.81-3.76c-.47,0-.89.14-1.32.38-.38.28-.75.66-1.03,1.18-.42.66-.71,1.5-.94,2.54-.24.99-.38,1.97-.38,3.01,0,1.18.19,2.07.61,2.68.38.61.94.94,1.69.94,1.08,0,1.93-.66,2.63-1.97.66-1.32.99-3.01.99-5.12,0-1.22-.14-2.16-.52-2.73-.38-.61-.94-.89-1.74-.89h0Zm15.18,11.66l.66-4.94c0-.09.05-.24.05-.38v-.33c0-.52-.09-.85-.38-1.13-.24-.24-.61-.38-1.08-.38-.66,0-1.13.28-1.5.8-.38.52-.66,1.27-.8,2.3l-.52,4.04h-1.36l1.03-8.04h1.36l-.19,1.27c.38-.52.8-.89,1.22-1.18.47-.24.94-.38,1.5-.38.52,0,.99.14,1.36.42.38.24.61.61.75,1.08.38-.47.8-.85,1.32-1.13.47-.24.94-.38,1.5-.38.66,0,1.22.24,1.6.66.42.42.61.99.61,1.69,0,.19,0,.42-.05.8v.09l-.71,5.08h-1.36l.61-4.94c.05-.09.05-.24.05-.38.05-.09.05-.24.05-.33,0-.52-.14-.85-.38-1.13-.28-.24-.61-.38-1.13-.38-.66,0-1.13.28-1.5.75-.38.47-.61,1.27-.75,2.35l-.56,4.04h-1.41Zm12.97-1.08c.8,0,1.46-.28,1.97-.94.56-.66.85-1.46.85-2.4,0-.8-.24-1.46-.66-1.93-.42-.52-.99-.75-1.65-.75-.89,0-1.65.28-2.21.94-.56.61-.85,1.36-.85,2.35,0,.8.24,1.46.71,1.97.47.52,1.08.75,1.83.75h0Zm3.34-6.96h1.36l-.8,6.39c0,.14-.05.28-.09.56-.19,1.55-.42,2.63-.8,3.2-.33.61-.8,1.03-1.36,1.32-.56.28-1.27.42-2.16.42-1.08,0-1.93-.28-2.59-.89-.66-.56-.99-1.36-.99-2.35l1.36-.19c.05.71.24,1.27.71,1.69.42.38,1.03.56,1.83.56.71,0,1.27-.24,1.69-.71.42-.52.71-1.18.8-2.07l.14-1.22c-.38.52-.8.89-1.27,1.13-.52.24-1.03.38-1.65.38-1.03,0-1.83-.38-2.49-1.08-.66-.75-.99-1.69-.99-2.82,0-1.32.42-2.44,1.18-3.29.8-.89,1.79-1.32,2.96-1.32.71,0,1.32.19,1.79.47.52.33.89.8,1.13,1.41l.24-1.6Zm15.61-2.68v4.84h4.7v1.03h-4.7v4.84h-1.08v-4.84h-4.7v-1.03h4.7v-4.84h1.08Zm14.48,9.31h.85c1.32,0,2.21-.05,2.73-.09.52-.09.99-.19,1.32-.38.89-.42,1.6-1.08,2.07-1.93.47-.85.71-1.83.71-2.96,0-.99-.19-1.83-.56-2.54-.38-.75-.94-1.27-1.65-1.65-.33-.19-.71-.33-1.18-.38-.47-.09-1.18-.14-2.02-.14h-.89l-1.36,10.06Zm-1.69,1.41l1.65-12.83h1.74c1.46,0,2.49.05,3.06.14.56.09,1.08.24,1.46.42.94.47,1.69,1.22,2.26,2.16.52.94.75,2.02.75,3.24,0,1.13-.19,2.21-.66,3.2-.42.99-1.03,1.79-1.83,2.35-.61.47-1.32.8-2.12.99-.8.24-2.12.33-3.9.33h-2.4Zm16.64-7.19c-.89,0-1.65.33-2.21.99-.56.66-.85,1.46-.85,2.49,0,.89.24,1.6.75,2.12.47.56,1.13.8,1.97.8.89,0,1.6-.28,2.16-.94.56-.66.85-1.5.85-2.49,0-.85-.24-1.55-.75-2.12-.52-.56-1.13-.85-1.93-.85h0Zm-4.47,3.53c0-1.32.42-2.44,1.32-3.34.85-.85,1.93-1.32,3.2-1.32,1.18,0,2.12.38,2.87,1.13.8.71,1.18,1.65,1.18,2.73,0,1.41-.42,2.59-1.27,3.48-.85.89-1.93,1.32-3.24,1.32-1.22,0-2.21-.38-2.91-1.08-.75-.75-1.13-1.74-1.13-2.91h0Zm15.09,3.67l.61-4.94c.05-.09.05-.24.05-.38v-.33c0-.52-.09-.85-.33-1.13-.28-.24-.66-.38-1.13-.38-.61,0-1.13.28-1.5.8-.38.52-.61,1.27-.75,2.3l-.56,4.04h-1.36l1.08-8.04h1.32l-.19,1.27c.38-.52.8-.89,1.27-1.18.42-.24.89-.38,1.46-.38.52,0,.99.14,1.36.42.38.24.61.61.75,1.08.38-.47.85-.85,1.32-1.13.47-.24.99-.38,1.5-.38.71,0,1.22.24,1.65.66.38.42.56.99.56,1.69,0,.19,0,.42-.05.8v.09l-.66,5.08h-1.41l.66-4.94c0-.09,0-.24.05-.38v-.33c0-.52-.14-.85-.38-1.13-.24-.24-.61-.38-1.08-.38-.66,0-1.18.28-1.55.75-.38.47-.61,1.27-.75,2.35l-.52,4.04h-1.41Zm13.68-7c-.75,0-1.46.33-1.97.99-.56.61-.8,1.41-.8,2.4,0,.8.19,1.46.61,1.93.42.52.99.75,1.69.75.89,0,1.6-.33,2.16-.94.56-.61.85-1.41.85-2.4,0-.8-.24-1.46-.71-1.97-.47-.52-1.08-.75-1.83-.75h0Zm-5.17,10.91l1.55-11.94h1.41l-.19,1.27c.38-.52.8-.89,1.32-1.18.47-.24.99-.38,1.6-.38.99,0,1.83.38,2.49,1.13.61.75.94,1.74.94,2.91,0,1.27-.38,2.4-1.18,3.24-.75.89-1.74,1.32-2.91,1.32-.71,0-1.32-.14-1.79-.47-.47-.28-.85-.75-1.08-1.41l-.75,5.5h-1.41Zm18.38-7.71l-6.44.05v.14c0,.85.24,1.5.66,2.02.47.47,1.03.75,1.79.75.47,0,.94-.14,1.32-.38.42-.24.8-.56,1.18-1.03l.94.75c-.47.61-.99,1.08-1.55,1.36-.52.33-1.13.47-1.79.47-1.22,0-2.16-.38-2.87-1.08-.71-.71-1.08-1.69-1.08-2.91,0-1.32.42-2.44,1.22-3.34.85-.85,1.88-1.32,3.1-1.32,1.13,0,1.97.33,2.59,1.03.66.66.94,1.65.94,2.87v.61h0Zm-1.32-1.13c-.05-.71-.24-1.27-.61-1.65-.38-.42-.94-.61-1.6-.61-.71,0-1.32.24-1.79.61-.52.42-.85.99-.99,1.65h4.98Zm7.85-1.79c-.19-.05-.33-.14-.47-.19-.19,0-.33-.05-.47-.05-.61,0-1.13.28-1.46.8-.38.47-.61,1.27-.8,2.35l-.47,3.81h-1.36l1.03-8.04h1.41l-.24,1.27c.38-.52.75-.94,1.13-1.18.38-.24.75-.38,1.22-.38.14,0,.28.05.42.05.09.05.24.09.38.14l-.33,1.41Zm2.21-5.08c0-.28.09-.47.28-.66.19-.19.42-.28.71-.28.24,0,.47.09.66.24.19.19.28.42.28.71s-.09.52-.28.66c-.19.19-.42.28-.66.28-.28,0-.52-.09-.71-.28-.19-.19-.28-.42-.28-.66h0Zm-1.13,11.8l1.03-8.04h1.41l-1.08,8.04h-1.36Zm8.09-.94c.75,0,1.41-.33,1.97-.99.52-.66.8-1.46.8-2.4,0-.85-.24-1.5-.66-1.97-.42-.52-.94-.75-1.65-.75-.89,0-1.6.28-2.16.94-.56.61-.85,1.41-.85,2.4,0,.8.24,1.5.71,1.97.47.52,1.08.8,1.83.8h0Zm4-12.64h1.41l-1.79,13.58h-1.41l.19-1.22c-.38.52-.8.94-1.27,1.18-.47.24-1.03.38-1.65.38-1.03,0-1.83-.38-2.49-1.13-.66-.75-.94-1.74-.94-2.91,0-1.32.38-2.44,1.13-3.29.8-.89,1.79-1.32,2.96-1.32.71,0,1.32.19,1.79.47.52.33.89.8,1.13,1.46l.94-7.19Zm6.58,6.39c-.89,0-1.6.33-2.21.99-.56.66-.85,1.46-.85,2.49,0,.89.24,1.6.75,2.12.52.56,1.18.8,1.97.8.89,0,1.6-.28,2.16-.94.56-.66.85-1.5.85-2.49,0-.85-.24-1.55-.75-2.12-.47-.56-1.13-.85-1.93-.85h0Zm-4.47,3.53c0-1.32.42-2.44,1.32-3.34.85-.85,1.93-1.32,3.2-1.32,1.18,0,2.12.38,2.91,1.13.75.71,1.13,1.65,1.13,2.73,0,1.41-.42,2.59-1.27,3.48-.85.89-1.93,1.32-3.24,1.32-1.22,0-2.21-.38-2.91-1.08-.75-.75-1.13-1.74-1.13-2.91h0Zm10.11,3.67l1.03-8.04h1.36l-.19,1.32c.42-.52.89-.94,1.41-1.22.47-.24,1.03-.38,1.6-.38.75,0,1.36.24,1.83.66.42.42.66.99.66,1.69v.42c-.05.14-.05.33-.05.47l-.71,5.08h-1.36l.61-4.94v-.14c.05-.28.05-.47.05-.56,0-.52-.14-.85-.42-1.13-.28-.24-.71-.38-1.27-.38-.75,0-1.32.28-1.79.8-.42.52-.75,1.27-.89,2.3l-.52,4.04h-1.36Zm17.3-3.81l-6.39.05v.14c0,.85.24,1.5.66,2.02.42.47,1.03.75,1.79.75.47,0,.89-.14,1.32-.38.38-.24.8-.56,1.13-1.03l.99.75c-.47.61-.99,1.08-1.55,1.36-.56.33-1.18.47-1.83.47-1.18,0-2.12-.38-2.82-1.08-.71-.71-1.08-1.69-1.08-2.91,0-1.32.42-2.44,1.22-3.34.85-.85,1.83-1.32,3.1-1.32,1.08,0,1.97.33,2.59,1.03.61.66.94,1.65.94,2.87v.38c0,.09,0,.19-.05.24h0Zm-1.32-1.13c0-.71-.19-1.27-.56-1.65-.38-.42-.94-.61-1.65-.61-.66,0-1.27.24-1.79.61-.47.42-.8.99-.94,1.65h4.94Zm8.04,1.6h1.41c0,.75.24,1.36.66,1.79.42.38,1.03.61,1.83.61.85,0,1.55-.24,2.02-.75.52-.47.75-1.13.75-1.97,0-.75-.24-1.27-.71-1.65-.47-.38-1.18-.56-2.12-.56-.14,0-.24,0-.28.05h-.19l.19-1.22h.24c1.03,0,1.88-.24,2.44-.71.56-.42.85-1.03.85-1.88,0-.61-.19-1.13-.52-1.46-.38-.38-.89-.56-1.55-.56s-1.18.19-1.55.52c-.42.38-.66.85-.71,1.5h-1.46c.05-1.03.47-1.83,1.13-2.44.71-.56,1.6-.89,2.77-.89,1.03,0,1.88.28,2.49.85.56.56.89,1.36.89,2.3,0,.85-.24,1.55-.71,2.16-.47.56-1.13.99-1.97,1.13.75.19,1.32.52,1.69.99.38.47.56,1.08.56,1.79,0,1.27-.38,2.26-1.18,2.96-.8.75-1.88,1.13-3.24,1.13-1.18,0-2.12-.28-2.77-.89-.66-.61-.99-1.46-.99-2.54v-.24Zm19.37-4.56c0,1.22-.14,2.35-.42,3.38-.28,1.08-.66,1.97-1.13,2.73-.47.71-.99,1.22-1.6,1.6-.61.33-1.32.52-2.02.52-1.22,0-2.12-.42-2.77-1.32-.66-.85-.99-2.12-.99-3.76,0-1.18.14-2.3.42-3.38.24-1.03.61-1.97,1.13-2.73.42-.71.99-1.22,1.55-1.55.61-.38,1.32-.56,2.02-.56,1.22,0,2.16.47,2.82,1.32.66.89.99,2.16.99,3.76h0Zm-3.76-3.76c-.52,0-.94.14-1.32.38-.42.28-.75.66-1.08,1.18-.38.66-.71,1.5-.94,2.54-.24.99-.33,1.97-.33,3.01,0,1.18.19,2.07.56,2.68.38.61.99.94,1.74.94,1.03,0,1.93-.66,2.59-1.97.71-1.32,1.03-3.01,1.03-5.12,0-1.22-.19-2.16-.56-2.73-.38-.61-.94-.89-1.69-.89h0Zm15.18,11.66l.61-4.94c.05-.09.05-.24.05-.38v-.33c0-.52-.09-.85-.33-1.13-.28-.24-.66-.38-1.13-.38-.61,0-1.13.28-1.5.8-.38.52-.61,1.27-.75,2.3l-.56,4.04h-1.36l1.08-8.04h1.32l-.19,1.27c.38-.52.8-.89,1.27-1.18.42-.24.94-.38,1.46-.38s.99.14,1.36.42c.38.24.61.61.75,1.08.38-.47.85-.85,1.32-1.13.47-.24.99-.38,1.5-.38.71,0,1.22.24,1.65.66.38.42.56.99.56,1.69,0,.19,0,.42-.05.8v.09l-.66,5.08h-1.41l.66-4.94c0-.09,0-.24.05-.38v-.33c0-.52-.14-.85-.38-1.13-.24-.24-.61-.38-1.08-.38-.66,0-1.18.28-1.55.75-.33.47-.61,1.27-.75,2.35l-.52,4.04h-1.41Zm12.97-1.08c.75,0,1.41-.28,1.97-.94.52-.66.8-1.46.8-2.4,0-.8-.24-1.46-.61-1.93-.47-.52-.99-.75-1.69-.75-.89,0-1.6.28-2.16.94-.56.61-.85,1.36-.85,2.35,0,.8.24,1.46.71,1.97s1.08.75,1.83.75h0Zm3.29-6.96h1.36l-.8,6.39c0,.14-.05.28-.05.56-.19,1.55-.47,2.63-.8,3.2-.38.61-.85,1.03-1.41,1.32-.56.28-1.27.42-2.16.42-1.08,0-1.93-.28-2.59-.89-.61-.56-.99-1.36-.99-2.35l1.36-.19c.05.71.28,1.27.71,1.69.42.38,1.03.56,1.83.56.71,0,1.27-.24,1.69-.71.47-.52.71-1.18.8-2.07l.14-1.22c-.38.52-.8.89-1.27,1.13-.47.24-1.03.38-1.65.38-.99,0-1.83-.38-2.49-1.08-.66-.75-.94-1.69-.94-2.82,0-1.32.38-2.44,1.18-3.29.75-.89,1.74-1.32,2.91-1.32.71,0,1.32.19,1.83.47.47.33.85.8,1.13,1.41l.19-1.6Z"/>
      <path class="cls-3" d="m352.81,123.72l.89-1.03c.28.47.61.8.99,1.03.38.24.8.38,1.22.38.52,0,.89-.14,1.22-.38.28-.24.42-.52.42-.94s-.42-.85-1.22-1.22c-.24-.09-.38-.14-.52-.24-.75-.38-1.27-.71-1.5-1.03-.28-.28-.38-.71-.38-1.18,0-.75.24-1.32.8-1.83.56-.47,1.22-.71,2.12-.71.52,0,.99.09,1.46.33.47.19.89.47,1.22.85l-.8,1.03c-.28-.33-.56-.56-.89-.75-.33-.14-.71-.24-1.13-.24-.38,0-.71.09-.99.33-.28.24-.42.52-.42.85,0,.42.47.85,1.46,1.27l.14.05c.8.33,1.32.71,1.6,1.03s.42.75.42,1.27c0,.85-.28,1.46-.8,1.93-.52.47-1.22.71-2.16.71-.66,0-1.27-.14-1.79-.38-.52-.24-.99-.61-1.36-1.13h0Zm8.93-6.86h1.41l-.47,3.57c0,.09,0,.24-.05.38-.09.89-.19,1.5-.19,1.79,0,.42.19.75.47.99.28.24.71.38,1.27.38.71,0,1.22-.19,1.55-.56.33-.38.56-1.22.75-2.54l.52-4h1.36l-.52,4.09s-.05.14-.05.28c-.19,1.46-.56,2.44-1.03,3.01-.33.33-.71.56-1.18.75-.42.14-.94.24-1.5.24-.89,0-1.65-.24-2.21-.66-.56-.47-.8-1.08-.8-1.83,0-.28.05-.94.19-2.02v-.14l.47-3.71Zm7.62,6.86l.89-1.03c.28.47.61.8.99,1.03.38.24.8.38,1.22.38.52,0,.89-.14,1.22-.38.28-.24.42-.52.42-.94s-.42-.85-1.22-1.22c-.24-.09-.38-.14-.52-.24-.75-.38-1.27-.71-1.5-1.03-.28-.28-.38-.71-.38-1.18,0-.75.24-1.32.8-1.83.52-.47,1.22-.71,2.07-.71.56,0,1.03.09,1.5.33.47.19.85.47,1.22.85l-.85,1.03c-.24-.33-.52-.56-.85-.75-.33-.14-.71-.24-1.13-.24-.38,0-.75.09-1.03.33-.24.24-.38.52-.38.85,0,.42.47.85,1.46,1.27l.14.05c.8.33,1.32.71,1.6,1.03s.42.75.42,1.27c0,.85-.28,1.46-.8,1.93-.52.47-1.27.71-2.16.71-.66,0-1.27-.14-1.79-.38-.52-.24-.99-.61-1.36-1.13h0Zm8.27,1.18l.94-6.86h-1.5l.14-1.18h1.5l.42-3.2h1.41l-.42,3.2h1.74l-.14,1.18h-1.74l-.94,6.86h-1.41Zm8.7-.94c.75,0,1.41-.33,1.97-.99.52-.66.8-1.46.8-2.4,0-.85-.24-1.5-.66-1.97-.42-.52-.94-.75-1.65-.75-.89,0-1.6.28-2.16.94-.56.61-.85,1.41-.85,2.4,0,.8.24,1.5.71,1.97.47.52,1.08.8,1.83.8h0Zm3.29-7.1h1.36l-1.03,8.04h-1.41l.19-1.22c-.38.52-.8.94-1.27,1.18-.47.24-1.03.38-1.65.38-1.03,0-1.83-.38-2.49-1.13s-.94-1.74-.94-2.91c0-1.32.38-2.44,1.18-3.29.75-.89,1.74-1.32,2.91-1.32.71,0,1.32.19,1.79.47.52.33.89.8,1.18,1.46l.19-1.65Zm4.23-3.76c0-.28.09-.47.28-.66.19-.19.42-.28.66-.28.28,0,.52.09.71.24.19.19.24.42.24.71s-.05.52-.24.66c-.19.19-.42.28-.71.28-.24,0-.47-.09-.66-.28-.19-.19-.28-.42-.28-.66h0Zm-1.18,11.8l1.08-8.04h1.41l-1.08,8.04h-1.41Zm4.28,0l1.08-8.04h1.32l-.19,1.32c.47-.52.89-.94,1.41-1.22.47-.24,1.03-.38,1.6-.38.8,0,1.36.24,1.83.66.42.42.66.99.66,1.69v.42c0,.14-.05.33-.05.47l-.66,5.08h-1.41l.61-4.94v-.14c.05-.28.09-.47.09-.56,0-.52-.14-.85-.47-1.13-.28-.24-.71-.38-1.27-.38-.75,0-1.32.28-1.79.8-.42.52-.75,1.27-.85,2.3l-.56,4.04h-1.36Zm17.35-3.81l-6.44.05v.14c0,.85.24,1.5.66,2.02.42.47,1.03.75,1.79.75.47,0,.94-.14,1.32-.38.38-.24.8-.56,1.18-1.03l.94.75c-.47.61-.99,1.08-1.55,1.36-.56.33-1.18.47-1.83.47-1.18,0-2.12-.38-2.82-1.08-.71-.71-1.08-1.69-1.08-2.91,0-1.32.42-2.44,1.22-3.34.85-.85,1.88-1.32,3.1-1.32,1.13,0,1.97.33,2.59,1.03.61.66.94,1.65.94,2.87v.61h0Zm-1.36-1.13c0-.71-.19-1.27-.56-1.65-.38-.42-.94-.61-1.65-.61-.66,0-1.27.24-1.79.61-.47.42-.8.99-.94,1.65h4.94Zm6.67,4c.75,0,1.41-.33,1.97-.99.52-.66.8-1.46.8-2.4,0-.85-.24-1.5-.66-1.97-.42-.52-.94-.75-1.65-.75-.89,0-1.6.28-2.16.94-.56.61-.85,1.41-.85,2.4,0,.8.24,1.5.71,1.97.47.52,1.08.8,1.83.8h0Zm4-12.64h1.41l-1.79,13.58h-1.41l.19-1.22c-.38.52-.8.94-1.27,1.18-.47.24-1.03.38-1.65.38-1.03,0-1.83-.38-2.49-1.13-.66-.75-.94-1.74-.94-2.91,0-1.32.38-2.44,1.13-3.29.8-.89,1.79-1.32,2.96-1.32.71,0,1.32.19,1.79.47.52.33.89.8,1.13,1.46l.94-7.19Zm12.55,6.86c-.19-.05-.33-.14-.47-.19-.19,0-.33-.05-.47-.05-.61,0-1.13.28-1.46.8-.38.47-.61,1.27-.75,2.35l-.52,3.81h-1.36l1.03-8.04h1.41l-.24,1.27c.38-.52.75-.94,1.13-1.18.38-.24.8-.38,1.22-.38.14,0,.28.05.42.05.09.05.24.09.38.14l-.33,1.41Zm8.6,2.91l-6.39.05v.14c0,.85.19,1.5.66,2.02.42.47,1.03.75,1.79.75.47,0,.89-.14,1.32-.38.38-.24.75-.56,1.13-1.03l.99.75c-.47.61-.99,1.08-1.55,1.36-.56.33-1.18.47-1.83.47-1.18,0-2.12-.38-2.82-1.08-.71-.71-1.08-1.69-1.08-2.91,0-1.32.42-2.44,1.22-3.34.85-.85,1.83-1.32,3.1-1.32,1.08,0,1.97.33,2.59,1.03.61.66.94,1.65.94,2.87v.38c0,.09,0,.19-.05.24h0Zm-1.32-1.13c0-.71-.19-1.27-.56-1.65-.42-.42-.94-.61-1.65-.61s-1.27.24-1.79.61c-.47.42-.8.99-.99,1.65h4.98Zm4.28,4.94h-1.41l1.79-13.58h1.41l-1.79,13.58Zm10.48-3.81l-6.39.05v.14c0,.85.19,1.5.66,2.02.42.47,1.03.75,1.79.75.47,0,.89-.14,1.32-.38.38-.24.75-.56,1.13-1.03l.99.75c-.47.61-.99,1.08-1.55,1.36-.56.33-1.18.47-1.83.47-1.22,0-2.16-.38-2.87-1.08-.71-.71-1.03-1.69-1.03-2.91,0-1.32.42-2.44,1.22-3.34.8-.85,1.83-1.32,3.06-1.32,1.13,0,2.02.33,2.63,1.03.61.66.94,1.65.94,2.87,0,.19,0,.28-.05.38v.24h0Zm-1.32-1.13c0-.71-.24-1.27-.61-1.65-.38-.42-.89-.61-1.6-.61s-1.27.24-1.79.61c-.52.42-.85.99-.99,1.65h4.98Zm6.67,4c.75,0,1.41-.33,1.97-.99.52-.66.8-1.46.8-2.4,0-.85-.19-1.5-.61-1.97-.42-.52-.99-.75-1.69-.75-.85,0-1.6.28-2.16.94-.56.61-.85,1.41-.85,2.4,0,.8.24,1.5.71,1.97.47.52,1.08.8,1.83.8h0Zm3.29-7.1h1.41l-1.08,8.04h-1.41l.24-1.22c-.42.52-.85.94-1.32,1.18-.47.24-1.03.38-1.6.38-1.03,0-1.88-.38-2.54-1.13-.61-.75-.94-1.74-.94-2.91,0-1.32.38-2.44,1.18-3.29.75-.89,1.74-1.32,2.96-1.32.71,0,1.27.19,1.79.47.47.33.85.8,1.13,1.46l.19-1.65Zm2.4,6.86l.89-1.03c.33.47.66.8,1.03,1.03.33.24.75.38,1.22.38s.89-.14,1.18-.38.42-.52.42-.94-.38-.85-1.22-1.22c-.19-.09-.38-.14-.52-.24-.75-.38-1.27-.71-1.5-1.03-.24-.28-.38-.71-.38-1.18,0-.75.28-1.32.8-1.83.56-.47,1.27-.71,2.12-.71.52,0,1.03.09,1.5.33.42.19.85.47,1.22.85l-.85,1.03c-.24-.33-.52-.56-.85-.75-.38-.14-.71-.24-1.13-.24s-.75.09-1.03.33c-.28.24-.42.52-.42.85,0,.42.52.85,1.5,1.27l.14.05c.8.33,1.32.71,1.6,1.03.24.33.38.75.38,1.27,0,.85-.28,1.46-.8,1.93-.52.47-1.22.71-2.16.71-.66,0-1.27-.14-1.79-.38-.47-.24-.94-.61-1.36-1.13h0Zm15.61-2.63l-6.44.05v.14c0,.85.24,1.5.66,2.02.42.47,1.03.75,1.79.75.47,0,.94-.14,1.32-.38.38-.24.8-.56,1.18-1.03l.94.75c-.47.61-.99,1.08-1.55,1.36-.56.33-1.18.47-1.83.47-1.18,0-2.12-.38-2.82-1.08-.71-.71-1.08-1.69-1.08-2.91,0-1.32.42-2.44,1.22-3.34.85-.85,1.83-1.32,3.1-1.32,1.13,0,1.97.33,2.59,1.03.61.66.94,1.65.94,2.87v.61h0Zm-1.36-1.13c0-.71-.19-1.27-.56-1.65-.38-.42-.94-.61-1.65-.61-.66,0-1.27.24-1.79.61-.47.42-.8.99-.94,1.65h4.94Zm15.09-.99c-.42-.42-.85-.75-1.27-.94-.47-.19-.94-.28-1.46-.28-.89,0-1.69.33-2.26.94-.61.66-.89,1.5-.89,2.59,0,.85.24,1.5.75,2.02.52.52,1.22.75,2.02.75.42,0,.85-.05,1.22-.24.38-.14.85-.42,1.32-.8l-.24,1.5c-.33.24-.71.42-1.13.52-.42.14-.89.19-1.41.19-1.18,0-2.12-.38-2.87-1.08-.71-.75-1.08-1.69-1.08-2.91,0-1.36.42-2.49,1.32-3.34.85-.89,1.97-1.32,3.34-1.32.52,0,.99.09,1.46.19.47.14.89.38,1.36.66l-.19,1.55Zm5.08,4.98c.75,0,1.41-.33,1.97-.99.52-.66.8-1.46.8-2.4,0-.85-.19-1.5-.61-1.97-.42-.52-.99-.75-1.69-.75-.89,0-1.6.28-2.16.94-.56.61-.85,1.41-.85,2.4,0,.8.24,1.5.71,1.97.47.52,1.08.8,1.83.8h0Zm3.29-7.1h1.41l-1.08,8.04h-1.41l.19-1.22c-.38.52-.8.94-1.27,1.18-.47.24-1.03.38-1.6.38-1.03,0-1.88-.38-2.54-1.13-.61-.75-.94-1.74-.94-2.91,0-1.32.38-2.44,1.18-3.29.75-.89,1.74-1.32,2.91-1.32.75,0,1.32.19,1.83.47.47.33.85.8,1.13,1.46l.19-1.65Zm7.61,1.03c-.8,0-1.46.33-1.97.99-.56.61-.85,1.41-.85,2.4,0,.8.24,1.46.66,1.93.42.52.99.75,1.65.75.89,0,1.65-.33,2.21-.94.56-.61.85-1.41.85-2.4,0-.8-.24-1.46-.71-1.97-.47-.52-1.08-.75-1.83-.75h0Zm-5.22,10.91l1.6-11.94h1.36l-.19,1.27c.42-.52.85-.89,1.32-1.18.47-.24,1.03-.38,1.6-.38,1.03,0,1.83.38,2.49,1.13.66.75.99,1.74.99,2.91,0,1.27-.38,2.4-1.18,3.24-.8.89-1.74,1.32-2.91,1.32-.71,0-1.32-.14-1.79-.47-.52-.28-.85-.75-1.13-1.41l-.71,5.5h-1.46Zm10.2-5.08l.89-1.03c.28.47.61.8.99,1.03.38.24.75.38,1.22.38s.89-.14,1.18-.38c.33-.24.47-.52.47-.94s-.42-.85-1.27-1.22c-.19-.09-.38-.14-.47-.24-.8-.38-1.27-.71-1.55-1.03-.24-.28-.38-.71-.38-1.18,0-.75.28-1.32.8-1.83.56-.47,1.27-.71,2.12-.71.52,0,1.03.09,1.5.33.42.19.85.47,1.22.85l-.85,1.03c-.24-.33-.52-.56-.85-.75-.33-.14-.71-.24-1.13-.24s-.75.09-1.03.33c-.28.24-.42.52-.42.85,0,.42.52.85,1.5,1.27l.14.05c.8.33,1.32.71,1.6,1.03.24.33.38.75.38,1.27,0,.85-.24,1.46-.8,1.93-.52.47-1.22.71-2.12.71-.71,0-1.27-.14-1.79-.38-.52-.24-.99-.61-1.36-1.13h0Zm8.93-6.86h1.41l-.47,3.57c0,.09-.05.24-.05.38-.14.89-.19,1.5-.19,1.79,0,.42.14.75.42.99.33.24.75.38,1.27.38.71,0,1.27-.19,1.55-.56.33-.38.61-1.22.75-2.54l.52-4h1.41l-.56,4.09s0,.14-.05.28c-.19,1.46-.52,2.44-1.03,3.01-.28.33-.66.56-1.13.75-.47.14-.94.24-1.5.24-.94,0-1.69-.24-2.21-.66-.56-.47-.85-1.08-.85-1.83,0-.28.05-.94.19-2.02l.05-.14.47-3.71Zm9.64,8.04h-1.41l1.79-13.58h1.41l-1.79,13.58Zm10.48-3.81l-6.39.05v.14c0,.85.19,1.5.66,2.02.42.47,1.03.75,1.79.75.47,0,.89-.14,1.32-.38.38-.24.75-.56,1.13-1.03l.99.75c-.47.61-.99,1.08-1.55,1.36-.56.33-1.18.47-1.83.47-1.22,0-2.16-.38-2.87-1.08-.71-.71-1.03-1.69-1.03-2.91,0-1.32.42-2.44,1.22-3.34.8-.85,1.83-1.32,3.06-1.32,1.13,0,2.02.33,2.63,1.03.61.66.94,1.65.94,2.87,0,.19,0,.28-.05.38v.24h0Zm-1.32-1.13c0-.71-.24-1.27-.61-1.65-.38-.42-.89-.61-1.6-.61s-1.27.24-1.79.61c-.52.42-.85.99-.99,1.65h4.98Z"/>
    </g>
    <path class="cls-4" d="m512.73,43.43l1.03-9.45h-9.45c-4.51,0-7.8-3.67-7.29-8.18h0c.47-4.51,4.61-8.18,9.07-8.18h9.45l1.03-9.45c.47-4.47,4.56-8.18,9.07-8.18h0c4.51,0,7.8,3.71,7.29,8.18l-1.03,9.45h9.45c4.51,0,7.76,3.67,7.29,8.18h0c-.52,4.51-4.61,8.18-9.07,8.18h-9.45l-1.03,9.45c-.47,4.51-4.56,8.18-9.07,8.18h0c-4.51,0-7.8-3.67-7.29-8.18h0Z"/>
  </g>
</svg>