<?xml version="1.0" encoding="UTF-8"?>
<svg xmlns="http://www.w3.org/2000/svg" xmlns:xlink="http://www.w3.org/1999/xlink" viewBox="0 0 435.88 119.76">
  <defs>
    <style>
      .cls-1 {
        fill: url(#linear-gradient-4);
      }

      .cls-1, .cls-2, .cls-3, .cls-4, .cls-5, .cls-6, .cls-7, .cls-8, .cls-9, .cls-10 {
        fill-rule: evenodd;
      }

      .cls-11 {
        font-size: 11.96px;
        letter-spacing: -.02em;
      }

      .cls-11, .cls-12, .cls-13, .cls-14 {
        font-family: Gotham-Bold, Gotham;
        font-weight: 700;
      }

      .cls-11, .cls-15, .cls-14 {
        fill: #b4008d;
      }

      .cls-16 {
        mask: url(#mask-3);
      }

      .cls-16, .cls-17, .cls-18, .cls-19, .cls-20, .cls-21, .cls-22, .cls-23, .cls-24, .cls-25, .cls-26 {
        fill: none;
      }

      .cls-2 {
        fill: #77005d;
        mix-blend-mode: multiply;
        opacity: .38;
      }

      .cls-17 {
        mask: url(#mask-2);
      }

      .cls-12 {
        font-size: 14.61px;
      }

      .cls-12, .cls-13, .cls-5, .cls-27, .cls-28 {
        fill: #231f20;
      }

      .cls-29 {
        fill: url(#linear-gradient-6);
      }

      .cls-13 {
        font-size: 17px;
      }

      .cls-3 {
        fill: url(#linear-gradient-2);
      }

      .cls-30 {
        fill: url(#linear-gradient-11);
      }

      .cls-4 {
        fill: url(#linear-gradient-9);
      }

      .cls-18 {
        mask: url(#mask-1);
      }

      .cls-31 {
        fill: url(#linear-gradient-10);
      }

      .cls-19 {
        mask: url(#mask-5);
      }

      .cls-14 {
        font-size: 8.53px;
        letter-spacing: -.02em;
      }

      .cls-20 {
        isolation: isolate;
      }

      .cls-32 {
        fill: url(#linear-gradient-5);
      }

      .cls-6 {
        fill: #e9b1d4;
      }

      .cls-27 {
        font-family: Gotham-Medium, Gotham;
        font-size: 11.34px;
        font-weight: 500;
      }

      .cls-33 {
        fill: url(#linear-gradient-7);
      }

      .cls-22 {
        stroke: url(#linear-gradient);
        stroke-dasharray: 0 0 0 2.45;
        stroke-linecap: round;
        stroke-miterlimit: 10;
        stroke-width: .61px;
      }

      .cls-23 {
        clip-path: url(#clippath);
      }

      .cls-24 {
        mask: url(#mask);
      }

      .cls-7 {
        fill: #ab218e;
      }

      .cls-25 {
        mask: url(#mask-4);
      }

      .cls-26 {
        clip-path: url(#clippath-1);
      }

      .cls-8 {
        fill: url(#linear-gradient-8);
      }

      .cls-9 {
        fill: url(#linear-gradient-3);
      }

      .cls-10 {
        fill: #49439b;
      }
    </style>
    <linearGradient id="linear-gradient" x1="320" y1="59.88" x2="320.61" y2="59.88" gradientUnits="userSpaceOnUse">
      <stop offset=".17" stop-color="#b4008d"/>
      <stop offset=".48" stop-color="#821e93"/>
      <stop offset=".81" stop-color="#49439b"/>
    </linearGradient>
    <clipPath id="clippath">
      <rect class="cls-21" x="340.14" y="21.77" width="88.48" height="41.2"/>
    </clipPath>
    <linearGradient id="linear-gradient-2" x1="381.53" y1="51.34" x2="448.56" y2="51.34" gradientUnits="userSpaceOnUse">
      <stop offset="0" stop-color="#b01f8c"/>
      <stop offset=".62" stop-color="#8d0c6f"/>
      <stop offset="1" stop-color="#77005d"/>
    </linearGradient>
    <linearGradient id="linear-gradient-3" x1="393.06" y1="78.21" x2="444.08" y2="78.21" xlink:href="#linear-gradient-2"/>
    <linearGradient id="linear-gradient-4" x1="355.47" y1="93.1" x2="401.99" y2="93.1" xlink:href="#linear-gradient-2"/>
    <linearGradient id="linear-gradient-5" x1="-2390.35" y1="670.43" x2="-2451.34" y2="723.77" gradientTransform="translate(2826.37 -665.03)" gradientUnits="userSpaceOnUse">
      <stop offset="0" stop-color="#fff"/>
      <stop offset="1" stop-color="#000"/>
    </linearGradient>
    <mask id="mask" x="359.46" y="22.96" width="51.26" height="53.95" maskUnits="userSpaceOnUse">
      <rect class="cls-32" x="359.46" y="22.96" width="51.26" height="53.95"/>
    </mask>
    <linearGradient id="linear-gradient-6" x1="-2602.21" y1="725.04" x2="-2590.46" y2="687.02" gradientTransform="translate(2989.46 -647.46)" xlink:href="#linear-gradient-5"/>
    <mask id="mask-1" x="385.49" y="47.52" width="12.14" height="32.2" maskUnits="userSpaceOnUse">
      <rect class="cls-29" x="385.49" y="47.52" width="12.14" height="32.2"/>
    </mask>
    <linearGradient id="linear-gradient-7" x1="-2557.05" y1="581.32" x2="-2535.47" y2="560.13" gradientTransform="translate(2937.18 -476.51)" xlink:href="#linear-gradient-5"/>
    <mask id="mask-2" x="377.15" y="84.07" width="24.84" height="22.93" maskUnits="userSpaceOnUse">
      <rect class="cls-33" x="377.15" y="84.07" width="24.84" height="22.93"/>
    </mask>
    <clipPath id="clippath-1">
      <rect class="cls-21" x="340.14" y="78.12" width="88.48" height="31.08"/>
    </clipPath>
    <linearGradient id="linear-gradient-8" x1="393.06" y1="78.21" x2="444.08" y2="78.21" xlink:href="#linear-gradient-2"/>
    <linearGradient id="linear-gradient-9" x1="355.47" y1="93.1" x2="401.99" y2="93.1" xlink:href="#linear-gradient-2"/>
    <mask id="mask-3" x="359.46" y="22.96" width="51.26" height="53.95" maskUnits="userSpaceOnUse">
      <rect class="cls-32" x="359.46" y="22.96" width="51.26" height="53.95"/>
    </mask>
    <linearGradient id="linear-gradient-10" x1="-2602.21" y1="725.04" x2="-2590.46" y2="687.02" gradientTransform="translate(2989.46 -647.46)" xlink:href="#linear-gradient-5"/>
    <mask id="mask-4" x="385.49" y="47.52" width="12.14" height="32.2" maskUnits="userSpaceOnUse">
      <rect class="cls-31" x="385.49" y="47.52" width="12.14" height="32.2"/>
    </mask>
    <linearGradient id="linear-gradient-11" x1="-2557.05" y1="581.32" x2="-2535.47" y2="560.13" gradientTransform="translate(2937.18 -476.51)" xlink:href="#linear-gradient-5"/>
    <mask id="mask-5" x="377.15" y="84.07" width="24.84" height="22.93" maskUnits="userSpaceOnUse">
      <rect class="cls-30" x="377.15" y="84.07" width="24.84" height="22.93"/>
    </mask>
  </defs>
  <g class="cls-20">
    <g id="Layer_1" data-name="Layer 1">
      <g>
        <line class="cls-22" x1="320.31" y1="2.39" x2="320.31" y2="117.37"/>
        <g>
          <g>
            <g>
              <text class="cls-13" transform="translate(20.95 114.71)"><tspan x="0" y="0">Powerful comprehensive relief </tspan></text>
              <g>
                <path class="cls-10" d="m239.24,65.73h1.41c2.95,0,5.15-.15,6.59-.47,1.41-.35,2.73-.87,3.86-1.64,1.71-1.16,3.05-2.68,4.06-4.58.99-1.88,1.59-4.11,1.86-6.69.37-3.77-.07-6.52-1.26-8.25-1.19-1.76-3.25-2.65-6.14-2.65h-7.21l-2.3,16.37c-.07.69-.22,1.73-.37,3.15-.2,1.41-.35,2.97-.5,4.76h0Zm-15.81,10.43c1.16-5.65,2.28-12.36,3.42-20.02,1.11-7.65,2.16-16.03,3.17-25.14h21.6c4.31,0,7.38.22,9.19.72,1.86.45,3.42,1.21,4.76,2.3,2.28,1.86,3.91,4.26,4.88,7.28.97,3.02,1.26,6.52.89,10.45-.74,7.95-3.49,13.97-8.25,18.18-4.81,4.14-11.35,6.22-19.72,6.22h-19.94Z"/>
                <polygon class="cls-7" points="217.49 63.35 205.67 63.35 207.23 53.24 219.02 53.24 217.49 63.35"/>
                <path class="cls-7" d="m162.22,76.16l1.56-10.73,24.57-24.6h-14.02c-.37,0-.89.02-1.59.07-.72.02-2.08.15-4.16.25l1.49-10.16h35.47l-1.56,10.38-24.57,24.7h13.35c.47,0,1.34-.05,2.63-.12,1.31-.07,2.97-.15,5.1-.3l-1.61,10.5h-36.66Z"/>
                <path class="cls-7" d="m121.44,76.16c1.11-5.55,2.2-12.09,3.32-19.65,1.09-7.51,2.13-16.03,3.17-25.52h35.87l-1.51,10.45c-1.83-.07-3.39-.15-4.76-.22-1.39-.02-2.3-.07-2.8-.07l-14.17.05c-.32,1.73-.54,3-.67,3.86-.15.84-.22,1.59-.3,2.33l-.07.87h11.57c1.54,0,2.87-.05,4.06-.07,1.19-.05,2.3-.12,3.29-.2l-1.51,10.6c-.74-.02-1.54-.1-2.35-.1-.84-.05-2.11-.05-3.86-.05h-12.71c-.22.94-.42,1.83-.57,2.73-.15.89-.25,1.81-.37,2.7-.05.52-.07.94-.07,1.19-.05.27-.05.5-.05.72,1.29.15,2.7.25,4.19.32,1.49.07,3.34.12,5.5.12,2.3,0,4.46-.07,6.54-.15,2.13-.07,4.09-.22,5.92-.42l-1.54,10.5h-36.12Z"/>
                <path class="cls-7" d="m89.39,30.99c0,.64.07,1.31.12,2.01.02.74.1,1.56.17,2.58l2.38,24.43,9.41-22.94c.52-1.26.97-2.38,1.34-3.32.37-.92.72-1.86,1.02-2.75h19.03c-.32,2.35-.69,5.03-1.11,8.03-.07.64-.15,1.09-.15,1.36l-3.34,25.76c-.02.22-.07.62-.15,1.26-.07.64-.15,1.11-.17,1.54-.07.97-.2,2.03-.27,3.27-.07,1.21-.15,2.53-.22,3.94h-13.2c.27-1.16.52-2.43.79-3.72.22-1.31.45-2.65.62-4.01l2.3-15.76c.05-.32.22-1.73.52-4.26.35-2.5.59-4.73.87-6.61l-12.46,28.89c-.57,1.34-1.02,2.38-1.31,3.2-.3.74-.59,1.54-.82,2.28h-10.95c-.05-.67-.07-1.41-.12-2.2-.07-.82-.15-1.66-.27-2.63l-3.37-29.28-3.91,22.05c-.22,1.34-.47,3-.77,4.88-.3,1.91-.64,4.29-1.04,7.18h-11.79c1.36-5.5,2.75-12.14,4.16-19.74,1.36-7.68,2.75-16.15,4.06-25.42h18.65Z"/>
                <path class="cls-5" d="m212.21,25.59c2.16,0,3.94,1.76,3.94,3.91s-1.78,3.91-3.94,3.91-3.99-1.76-3.99-3.91,1.78-3.91,3.99-3.91h0Zm0,.5c1.88,0,3.44,1.54,3.44,3.42s-1.56,3.42-3.44,3.42-3.54-1.51-3.54-3.42,1.61-3.42,3.54-3.42h0Z"/>
                <path class="cls-28" d="m211.12,29.26h1.24c.25,0,.47-.05.62-.07.15-.05.27-.15.35-.27.07-.1.1-.25.1-.37,0-.22-.07-.37-.22-.52-.15-.1-.37-.17-.69-.17h-1.39v1.41Zm-.59,2.4v-4.31h1.93c.42,0,.72.05.89.12.22.07.37.22.5.4.15.2.17.42.17.67,0,.3-.07.57-.3.74-.17.22-.52.37-.92.42.15.07.25.15.37.22.15.15.3.32.45.55l.77,1.19h-.74l-.54-.89c-.2-.25-.35-.47-.45-.59-.07-.15-.2-.22-.27-.3-.1-.02-.17-.07-.3-.1-.02,0-.15-.05-.3-.05h-.67v1.93h-.59Z"/>
                <path class="cls-7" d="m25.45,53.59c-.4,4.38.27,7.65,2.06,9.81,1.78,2.18,4.68,3.27,8.67,3.27s6.84-1.19,9.19-3.62c2.3-2.38,3.64-5.75,4.09-10.16.37-4.04-.35-7.13-2.2-9.24-1.81-2.08-4.68-3.17-8.6-3.17s-6.79,1.16-9.14,3.47c-2.3,2.3-3.69,5.5-4.06,9.64h0Zm9.17,23.53c-8.2,0-14.37-1.98-18.48-5.95-4.14-3.99-5.85-9.54-5.18-16.7.69-7.61,3.59-13.58,8.7-17.94,5.1-4.31,11.72-6.47,19.94-6.47s14.84,1.93,19.05,5.82c4.16,3.91,5.9,9.49,5.23,16.77-.74,7.68-3.67,13.7-8.82,18.01-5.13,4.31-11.97,6.44-20.44,6.44h0Z"/>
                <path class="cls-5" d="m293.17,68.45c.94.07,1.86,0,2.43.79.62.82.4,2.16.37,3.64-.05.99.07,2.08.1,3.05h2.5c-.35-1.56-.27-3.32-.27-4.95.05-1.86-.07-2.92-2.01-3.42v-.02c2.06-.45,3.52-1.98,3.82-3.99.52-3.27-2.25-4.14-5.08-4.14h-6.02l-2.6,16.52h2.3l1.19-7.48h3.27Zm-2.18-7.06h3.86c2.55.1,2.92,1.26,2.75,2.55-.22,1.31-.97,2.45-3.57,2.58h-3.86l.82-5.13Zm-20.07,9.71c-.67,3.72,1.66,5.15,5.18,5.15s7.04-1.29,7.63-5.05c.67-4.16-3.57-4.16-6.52-5.18-1.36-.45-2.7-.55-2.4-2.45.3-1.93,2.68-2.53,4.31-2.53s3.15.64,2.97,2.5h2.4c.52-3.25-2.08-4.46-4.93-4.46-3.17,0-6.69,1.29-7.26,4.91-.59,3.72,3.91,4.31,6.59,4.91,1.36.3,2.6.94,2.33,2.53-.37,2.35-2.77,2.87-4.68,2.87-2.25,0-3.49-.87-3.15-3.2h-2.48Z"/>
                <g>
                  <path class="cls-28" d="m14.77,86.83l-.1.74h-3.62l.89-6.76h3.47l-.07.74h-2.7l-.27,2.01h2.7l-.1.72h-2.68l-.35,2.55h2.82Zm.77.12l.47-.55c.15.25.32.42.52.55.2.12.42.2.67.2s.47-.07.62-.2c.15-.12.22-.27.22-.5s-.22-.45-.64-.64c-.12-.05-.2-.07-.27-.12-.4-.2-.67-.37-.79-.55-.12-.15-.2-.37-.2-.62,0-.4.15-.69.42-.97.3-.25.67-.37,1.11-.37.27,0,.55.05.77.17.25.1.47.25.67.45l-.45.55c-.12-.17-.3-.3-.47-.4-.17-.07-.37-.12-.57-.12-.22,0-.4.05-.55.17-.15.12-.22.27-.22.45,0,.22.25.45.79.67l.07.02c.4.17.69.37.82.55.15.17.22.4.22.67,0,.45-.15.77-.42,1.02-.27.25-.64.37-1.14.37-.35,0-.67-.07-.94-.2-.27-.12-.5-.32-.72-.59h0Zm6.44-3.17c-.47,0-.87.17-1.16.52s-.45.77-.45,1.31c0,.47.12.84.4,1.11.25.3.59.42,1.04.42s.84-.15,1.14-.5.45-.79.45-1.31c0-.45-.12-.82-.4-1.11-.27-.3-.59-.45-1.02-.45h0Zm-2.35,1.86c0-.69.22-1.29.69-1.76.45-.45,1.02-.69,1.68-.69.62,0,1.11.2,1.51.59.42.37.62.87.62,1.44,0,.74-.22,1.36-.67,1.83-.45.47-1.02.69-1.71.69-.64,0-1.16-.2-1.54-.57-.4-.4-.59-.92-.59-1.54h0Zm7.93,1.93l.35-2.6s.02-.12.02-.2v-.17c0-.27-.05-.45-.2-.59-.12-.12-.32-.2-.57-.2-.32,0-.59.15-.79.42-.2.27-.32.67-.4,1.21l-.3,2.13h-.72l.57-4.24h.69l-.1.67c.2-.27.42-.47.64-.62.25-.12.5-.2.79-.2.27,0,.52.07.72.22.2.12.32.32.4.57.2-.25.45-.45.69-.59.25-.12.52-.2.79-.2.37,0,.64.12.87.35.2.22.3.52.3.89,0,.1,0,.22-.02.42v.05l-.35,2.68h-.74l.35-2.6s0-.12.02-.2v-.17c0-.27-.07-.45-.2-.59-.12-.12-.32-.2-.59-.2-.32,0-.59.15-.79.4-.2.25-.32.67-.4,1.24l-.27,2.13h-.77Zm8.82-2.01l-3.37.02v.07c0,.45.12.79.35,1.07.22.25.55.4.94.4.25,0,.47-.07.69-.2.2-.12.42-.3.59-.55l.52.4c-.25.32-.52.57-.82.72-.3.17-.62.25-.97.25-.62,0-1.11-.2-1.49-.57-.37-.37-.57-.89-.57-1.54,0-.69.22-1.29.64-1.76.45-.45.97-.69,1.64-.69.57,0,1.04.17,1.36.55.32.35.5.87.5,1.51v.2s0,.1-.02.12h0Zm-.69-.59c0-.37-.1-.67-.3-.87-.22-.22-.5-.32-.87-.32-.35,0-.67.12-.94.32-.25.22-.42.52-.52.87h2.63Zm3.91-1.09c-.42,0-.77.17-1.04.52-.3.32-.45.74-.45,1.26,0,.42.12.77.35,1.02.22.27.52.4.87.4.47,0,.87-.17,1.16-.5.3-.32.45-.74.45-1.26,0-.42-.12-.77-.37-1.04-.25-.27-.57-.4-.97-.4h0Zm-2.75,5.75l.84-6.29h.72l-.1.67c.22-.27.45-.47.69-.62.25-.12.55-.2.84-.2.55,0,.99.2,1.31.59.35.4.52.92.52,1.54,0,.67-.2,1.26-.62,1.71-.4.47-.92.69-1.54.69-.37,0-.69-.07-.94-.25-.25-.15-.45-.4-.59-.74l-.37,2.9h-.77Zm8.32-5.6c-.07-.02-.15-.07-.22-.1-.1,0-.17-.02-.25-.02-.35,0-.59.15-.77.42-.2.25-.32.67-.42,1.24l-.25,2.01h-.72l.55-4.24h.74l-.12.67c.2-.27.4-.5.59-.62.2-.12.4-.2.64-.2.07,0,.15.02.2.02.07.02.15.05.22.07l-.2.74Zm2.58,3.05c.42,0,.77-.17,1.04-.52.3-.35.45-.77.45-1.26,0-.45-.12-.79-.35-1.04-.22-.27-.52-.4-.87-.4-.47,0-.84.15-1.16.5-.3.32-.45.74-.45,1.26,0,.42.12.79.37,1.04.25.27.57.42.97.42h0Zm1.76-3.74h.72l-.55,4.24h-.74l.1-.64c-.2.27-.42.5-.67.62-.27.12-.55.2-.87.2-.55,0-.99-.2-1.31-.59-.35-.4-.52-.92-.52-1.54,0-.69.22-1.29.62-1.73.42-.47.94-.69,1.56-.69.37,0,.69.1.94.25.25.17.45.42.59.77l.12-.87Zm1.16,4.24l2.73-3.62h-2.16l.07-.62h3.32l-2.65,3.59h2.18l-.07.64h-3.42Zm6.71-3.79c-.45,0-.84.17-1.14.52-.3.35-.47.77-.47,1.31,0,.47.15.84.4,1.11.27.3.62.42,1.04.42.47,0,.84-.15,1.16-.5.3-.35.45-.79.45-1.31,0-.45-.12-.82-.4-1.11-.27-.3-.62-.45-1.04-.45h0Zm-2.33,1.86c0-.69.22-1.29.67-1.76.47-.45,1.02-.69,1.71-.69.59,0,1.11.2,1.51.59.4.37.59.87.59,1.44,0,.74-.22,1.36-.64,1.83-.45.47-1.02.69-1.71.69-.64,0-1.16-.2-1.56-.57-.37-.4-.57-.92-.57-1.54h0Zm6.07,1.93h-.74l.94-7.16h.74l-.94,7.16Zm5.52-2.01l-3.37.02v.07c0,.45.1.79.35,1.07.22.25.55.4.94.4.25,0,.47-.07.69-.2.2-.12.4-.3.59-.55l.52.4c-.25.32-.52.57-.82.72-.3.17-.62.25-.97.25-.64,0-1.14-.2-1.51-.57-.37-.37-.55-.89-.55-1.54,0-.69.22-1.29.64-1.76.42-.45.97-.69,1.61-.69.59,0,1.07.17,1.39.55.32.35.5.87.5,1.51,0,.1,0,.15-.02.2v.12h0Zm-.69-.59c0-.37-.12-.67-.32-.87-.2-.22-.47-.32-.84-.32s-.67.12-.94.32c-.27.22-.45.52-.52.87h2.63Zm6.74,2.6l.2-1.54h-3.07v-.12l4.14-5.18h.4l-.59,4.66h.79l-.1.64h-.79l-.2,1.54h-.77Zm.3-2.18l.47-3.1-2.43,3.1h1.96Zm7.41-1.98c0,.64-.07,1.24-.22,1.78-.15.57-.35,1.04-.62,1.44-.22.37-.52.64-.84.84-.32.17-.67.27-1.04.27-.64,0-1.11-.22-1.46-.69-.35-.45-.52-1.11-.52-1.98,0-.62.07-1.21.2-1.78.15-.55.35-1.04.62-1.44.22-.37.5-.64.82-.82.32-.2.67-.3,1.07-.3.64,0,1.14.25,1.49.69.35.47.52,1.14.52,1.98h0Zm-2.01-1.98c-.25,0-.47.07-.69.2-.2.15-.4.35-.55.62-.22.35-.37.79-.5,1.34-.12.52-.2,1.04-.2,1.59,0,.62.1,1.09.32,1.41.2.32.5.5.89.5.57,0,1.02-.35,1.39-1.04.35-.69.52-1.59.52-2.7,0-.64-.07-1.14-.27-1.44-.2-.32-.5-.47-.92-.47h0Zm8,6.14l.35-2.6s.02-.12.02-.2v-.17c0-.27-.05-.45-.2-.59-.12-.12-.32-.2-.57-.2-.35,0-.59.15-.79.42-.2.27-.35.67-.42,1.21l-.27,2.13h-.72l.55-4.24h.72l-.1.67c.2-.27.42-.47.64-.62.25-.12.5-.2.79-.2.27,0,.52.07.72.22.2.12.32.32.4.57.2-.25.42-.45.69-.59.25-.12.5-.2.79-.2.35,0,.64.12.84.35.22.22.32.52.32.89,0,.1,0,.22-.02.42v.05l-.37,2.68h-.72l.32-2.6s.02-.12.02-.2c.02-.05.02-.12.02-.17,0-.27-.07-.45-.2-.59-.15-.12-.32-.2-.59-.2-.35,0-.59.15-.79.4-.2.25-.32.67-.4,1.24l-.3,2.13h-.74Zm6.84-.57c.42,0,.77-.15,1.04-.5.3-.35.45-.77.45-1.26,0-.42-.12-.77-.35-1.02-.22-.27-.52-.4-.87-.4-.47,0-.87.15-1.16.5-.3.32-.45.72-.45,1.24,0,.42.12.77.37,1.04.25.27.57.4.97.4h0Zm1.76-3.67h.72l-.42,3.37c0,.07-.02.15-.05.3-.1.82-.22,1.39-.42,1.68-.17.32-.42.55-.72.69-.3.15-.67.22-1.14.22-.57,0-1.02-.15-1.36-.47-.35-.3-.52-.72-.52-1.24l.72-.1c.02.37.12.67.37.89.22.2.55.3.97.3.37,0,.67-.12.89-.37.22-.27.37-.62.42-1.09l.07-.64c-.2.27-.42.47-.67.59-.27.12-.55.2-.87.2-.55,0-.97-.2-1.31-.57-.35-.4-.52-.89-.52-1.49,0-.69.22-1.29.62-1.73.42-.47.94-.69,1.56-.69.37,0,.69.1.94.25.27.17.47.42.59.74l.12-.84Zm8.22-1.41v2.55h2.48v.55h-2.48v2.55h-.57v-2.55h-2.48v-.55h2.48v-2.55h.57Zm7.63,4.91h.45c.69,0,1.16-.02,1.44-.05.27-.05.52-.1.69-.2.47-.22.84-.57,1.09-1.02.25-.45.37-.97.37-1.56,0-.52-.1-.97-.3-1.34-.2-.4-.5-.67-.87-.87-.17-.1-.37-.17-.62-.2-.25-.05-.62-.07-1.07-.07h-.47l-.72,5.3Zm-.89.74l.87-6.76h.92c.77,0,1.31.02,1.61.07.3.05.57.12.77.22.5.25.89.64,1.19,1.14.27.5.4,1.07.4,1.71,0,.59-.1,1.16-.35,1.68-.22.52-.55.94-.97,1.24-.32.25-.69.42-1.11.52-.42.12-1.11.17-2.06.17h-1.26Zm8.77-3.79c-.47,0-.87.17-1.16.52-.3.35-.45.77-.45,1.31,0,.47.12.84.4,1.11.25.3.59.42,1.04.42.47,0,.84-.15,1.14-.5s.45-.79.45-1.31c0-.45-.12-.82-.4-1.11-.27-.3-.59-.45-1.02-.45h0Zm-2.35,1.86c0-.69.22-1.29.69-1.76.45-.45,1.02-.69,1.68-.69.62,0,1.11.2,1.51.59.42.37.62.87.62,1.44,0,.74-.22,1.36-.67,1.83-.45.47-1.02.69-1.71.69-.64,0-1.16-.2-1.54-.57-.4-.4-.59-.92-.59-1.54h0Zm7.95,1.93l.32-2.6s.02-.12.02-.2v-.17c0-.27-.05-.45-.17-.59-.15-.12-.35-.2-.59-.2-.32,0-.59.15-.79.42-.2.27-.32.67-.4,1.21l-.3,2.13h-.72l.57-4.24h.69l-.1.67c.2-.27.42-.47.67-.62.22-.12.47-.2.77-.2.27,0,.52.07.72.22.2.12.32.32.4.57.2-.25.45-.45.69-.59.25-.12.52-.2.79-.2.37,0,.64.12.87.35.2.22.3.52.3.89,0,.1,0,.22-.02.42v.05l-.35,2.68h-.74l.35-2.6s0-.12.02-.2v-.17c0-.27-.07-.45-.2-.59-.12-.12-.32-.2-.57-.2-.35,0-.62.15-.82.4-.2.25-.32.67-.4,1.24l-.27,2.13h-.74Zm7.21-3.69c-.4,0-.77.17-1.04.52-.3.32-.42.74-.42,1.26,0,.42.1.77.32,1.02.22.27.52.4.89.4.47,0,.84-.17,1.14-.5.3-.32.45-.74.45-1.26,0-.42-.12-.77-.37-1.04-.25-.27-.57-.4-.97-.4h0Zm-2.73,5.75l.82-6.29h.74l-.1.67c.2-.27.42-.47.69-.62.25-.12.52-.2.84-.2.52,0,.97.2,1.31.59.32.4.5.92.5,1.54,0,.67-.2,1.26-.62,1.71-.4.47-.92.69-1.54.69-.37,0-.69-.07-.94-.25-.25-.15-.45-.4-.57-.74l-.4,2.9h-.74Zm9.69-4.06l-3.39.02v.07c0,.45.12.79.35,1.07.25.25.54.4.94.4.25,0,.5-.07.69-.2.22-.12.42-.3.62-.55l.5.4c-.25.32-.52.57-.82.72-.27.17-.59.25-.94.25-.64,0-1.14-.2-1.51-.57-.37-.37-.57-.89-.57-1.54,0-.69.22-1.29.64-1.76.45-.45.99-.69,1.64-.69.59,0,1.04.17,1.36.55.35.35.5.87.5,1.51v.32h0Zm-.69-.59c-.02-.37-.12-.67-.32-.87-.2-.22-.5-.32-.84-.32-.37,0-.69.12-.94.32-.27.22-.45.52-.52.87h2.63Zm4.14-.94c-.1-.02-.17-.07-.25-.1-.1,0-.17-.02-.25-.02-.32,0-.59.15-.77.42-.2.25-.32.67-.42,1.24l-.25,2.01h-.72l.55-4.24h.74l-.12.67c.2-.27.4-.5.59-.62.2-.12.4-.2.64-.2.07,0,.15.02.22.02.05.02.12.05.2.07l-.17.74Zm1.16-2.68c0-.15.05-.25.15-.35.1-.1.22-.15.37-.15.12,0,.25.05.35.12.1.1.15.22.15.37s-.05.27-.15.35c-.1.1-.22.15-.35.15-.15,0-.27-.05-.37-.15-.1-.1-.15-.22-.15-.35h0Zm-.59,6.22l.55-4.24h.74l-.57,4.24h-.72Zm4.26-.5c.4,0,.74-.17,1.04-.52.27-.35.42-.77.42-1.26,0-.45-.12-.79-.35-1.04-.22-.27-.5-.4-.87-.4-.47,0-.84.15-1.14.5-.3.32-.45.74-.45,1.26,0,.42.12.79.37,1.04.25.27.57.42.97.42h0Zm2.11-6.66h.74l-.94,7.16h-.74l.1-.64c-.2.27-.42.5-.67.62s-.55.2-.87.2c-.55,0-.97-.2-1.31-.59-.35-.4-.5-.92-.5-1.54,0-.69.2-1.29.59-1.73.42-.47.94-.69,1.56-.69.37,0,.69.1.94.25.27.17.47.42.59.77l.5-3.79Zm3.47,3.37c-.47,0-.84.17-1.16.52-.3.35-.45.77-.45,1.31,0,.47.12.84.4,1.11.27.3.62.42,1.04.42.47,0,.84-.15,1.14-.5.3-.35.45-.79.45-1.31,0-.45-.12-.82-.4-1.11-.25-.3-.59-.45-1.02-.45h0Zm-2.35,1.86c0-.69.22-1.29.69-1.76.45-.45,1.02-.69,1.68-.69.62,0,1.11.2,1.54.59.4.37.59.87.59,1.44,0,.74-.22,1.36-.67,1.83-.45.47-1.02.69-1.71.69-.64,0-1.16-.2-1.54-.57-.4-.4-.59-.92-.59-1.54h0Zm5.33,1.93l.55-4.24h.72l-.1.69c.22-.27.47-.5.74-.64.25-.12.55-.2.84-.2.4,0,.72.12.97.35.22.22.35.52.35.89v.22c-.02.07-.02.17-.02.25l-.37,2.68h-.72l.32-2.6v-.07c.02-.15.02-.25.02-.3,0-.27-.07-.45-.22-.59-.15-.12-.37-.2-.67-.2-.4,0-.69.15-.94.42-.22.27-.4.67-.47,1.21l-.27,2.13h-.72Zm9.12-2.01l-3.37.02v.07c0,.45.12.79.35,1.07.22.25.55.4.94.4.25,0,.47-.07.69-.2.2-.12.42-.3.59-.55l.52.4c-.25.32-.52.57-.82.72-.3.17-.62.25-.97.25-.62,0-1.11-.2-1.49-.57-.37-.37-.57-.89-.57-1.54,0-.69.22-1.29.64-1.76.45-.45.97-.69,1.64-.69.57,0,1.04.17,1.36.55.32.35.5.87.5,1.51v.2s0,.1-.02.12h0Zm-.69-.59c0-.37-.1-.67-.3-.87-.2-.22-.5-.32-.87-.32-.35,0-.67.12-.94.32-.25.22-.42.52-.5.87h2.6Zm4.24.84h.74c0,.4.12.72.35.94.22.2.55.32.97.32.45,0,.82-.12,1.07-.4.27-.25.4-.59.4-1.04,0-.4-.12-.67-.37-.87-.25-.2-.62-.3-1.11-.3-.07,0-.12,0-.15.02h-.1l.1-.64h.12c.55,0,.99-.12,1.29-.37.3-.22.45-.55.45-.99,0-.32-.1-.59-.27-.77-.2-.2-.47-.3-.82-.3s-.62.1-.82.27c-.22.2-.35.45-.37.79h-.77c.02-.55.25-.97.59-1.29.37-.3.84-.47,1.46-.47.54,0,.99.15,1.31.45.3.3.47.72.47,1.21,0,.45-.12.82-.37,1.14-.25.3-.59.52-1.04.59.4.1.69.27.89.52s.3.57.3.94c0,.67-.2,1.19-.62,1.56-.42.4-.99.59-1.71.59-.62,0-1.11-.15-1.46-.47-.35-.32-.52-.77-.52-1.34v-.12Zm10.21-2.4c0,.64-.07,1.24-.22,1.78-.15.57-.35,1.04-.59,1.44-.25.37-.52.64-.84.84-.32.17-.69.27-1.07.27-.64,0-1.11-.22-1.46-.69-.35-.45-.52-1.11-.52-1.98,0-.62.07-1.21.22-1.78.12-.55.32-1.04.59-1.44.22-.37.52-.64.82-.82.32-.2.69-.3,1.07-.3.64,0,1.14.25,1.49.69.35.47.52,1.14.52,1.98h0Zm-1.98-1.98c-.27,0-.5.07-.69.2-.22.15-.4.35-.57.62-.2.35-.37.79-.5,1.34-.12.52-.17,1.04-.17,1.59,0,.62.1,1.09.3,1.41.2.32.52.5.92.5.54,0,1.02-.35,1.36-1.04.37-.69.55-1.59.55-2.7,0-.64-.1-1.14-.3-1.44-.2-.32-.5-.47-.89-.47h0Zm8,6.14l.32-2.6s.02-.12.02-.2v-.17c0-.27-.05-.45-.17-.59-.15-.12-.35-.2-.59-.2-.32,0-.59.15-.79.42s-.32.67-.4,1.21l-.3,2.13h-.72l.57-4.24h.69l-.1.67c.2-.27.42-.47.67-.62.22-.12.5-.2.77-.2s.52.07.72.22c.2.12.32.32.4.57.2-.25.45-.45.69-.59.25-.12.52-.2.79-.2.37,0,.64.12.87.35.2.22.3.52.3.89,0,.1,0,.22-.02.42v.05l-.35,2.68h-.74l.35-2.6s0-.12.02-.2v-.17c0-.27-.07-.45-.2-.59-.12-.12-.32-.2-.57-.2-.35,0-.62.15-.82.4-.17.25-.32.67-.4,1.24l-.27,2.13h-.74Zm6.84-.57c.4,0,.74-.15,1.04-.5.27-.35.42-.77.42-1.26,0-.42-.12-.77-.32-1.02-.25-.27-.52-.4-.89-.4-.47,0-.84.15-1.14.5-.3.32-.45.72-.45,1.24,0,.42.12.77.37,1.04s.57.4.97.4h0Zm1.73-3.67h.72l-.42,3.37c0,.07-.02.15-.02.3-.1.82-.25,1.39-.42,1.68-.2.32-.45.55-.74.69s-.67.22-1.14.22c-.57,0-1.02-.15-1.36-.47-.32-.3-.52-.72-.52-1.24l.72-.1c.02.37.15.67.37.89.22.2.55.3.97.3.37,0,.67-.12.89-.37.25-.27.37-.62.42-1.09l.07-.64c-.2.27-.42.47-.67.59s-.55.2-.87.2c-.52,0-.97-.2-1.31-.57-.35-.4-.5-.89-.5-1.49,0-.69.2-1.29.62-1.73.4-.47.92-.69,1.54-.69.37,0,.69.1.97.25.25.17.45.42.59.74l.1-.84Z"/>
                  <path class="cls-28" d="m196.75,86.96l.47-.55c.15.25.32.42.52.55s.42.2.64.2c.27,0,.47-.07.64-.2.15-.12.22-.27.22-.5s-.22-.45-.64-.64c-.12-.05-.2-.07-.27-.12-.4-.2-.67-.37-.79-.55-.15-.15-.2-.37-.2-.62,0-.4.12-.69.42-.97.3-.25.64-.37,1.11-.37.27,0,.52.05.77.17.25.1.47.25.64.45l-.42.55c-.15-.17-.3-.3-.47-.4-.17-.07-.37-.12-.59-.12-.2,0-.37.05-.52.17s-.22.27-.22.45c0,.22.25.45.77.67l.07.02c.42.17.69.37.84.55s.22.4.22.67c0,.45-.15.77-.42,1.02s-.64.37-1.14.37c-.35,0-.67-.07-.94-.2-.27-.12-.52-.32-.72-.59h0Zm4.71-3.62h.74l-.25,1.88s0,.12-.02.2c-.05.47-.1.79-.1.94,0,.22.1.4.25.52.15.12.37.2.67.2.37,0,.64-.1.82-.3.17-.2.3-.64.4-1.34l.27-2.11h.72l-.27,2.16s-.02.07-.02.15c-.1.77-.3,1.29-.54,1.59-.17.17-.37.3-.62.4-.22.07-.5.12-.79.12-.47,0-.87-.12-1.16-.35-.3-.25-.42-.57-.42-.97,0-.15.02-.5.1-1.07v-.07l.25-1.96Zm4.01,3.62l.47-.55c.15.25.32.42.52.55.2.12.42.2.64.2.27,0,.47-.07.64-.2.15-.12.22-.27.22-.5s-.22-.45-.64-.64c-.12-.05-.2-.07-.27-.12-.4-.2-.67-.37-.79-.55-.15-.15-.2-.37-.2-.62,0-.4.12-.69.42-.97.27-.25.64-.37,1.09-.37.3,0,.55.05.79.17.25.1.45.25.64.45l-.45.55c-.12-.17-.27-.3-.45-.4-.17-.07-.37-.12-.59-.12-.2,0-.4.05-.55.17-.12.12-.2.27-.2.45,0,.22.25.45.77.67l.07.02c.42.17.69.37.84.55s.22.4.22.67c0,.45-.15.77-.42,1.02-.27.25-.67.37-1.14.37-.35,0-.67-.07-.94-.2-.27-.12-.52-.32-.72-.59h0Zm4.36.62l.5-3.62h-.79l.07-.62h.79l.22-1.68h.74l-.22,1.68h.92l-.07.62h-.92l-.5,3.62h-.74Zm4.58-.5c.4,0,.74-.17,1.04-.52.27-.35.42-.77.42-1.26,0-.45-.12-.79-.35-1.04-.22-.27-.5-.4-.87-.4-.47,0-.84.15-1.14.5-.3.32-.45.74-.45,1.26,0,.42.12.79.37,1.04.25.27.57.42.97.42h0Zm1.73-3.74h.72l-.55,4.24h-.74l.1-.64c-.2.27-.42.5-.67.62-.25.12-.55.2-.87.2-.55,0-.97-.2-1.31-.59s-.5-.92-.5-1.54c0-.69.2-1.29.62-1.73.4-.47.92-.69,1.54-.69.37,0,.69.1.94.25.27.17.47.42.62.77l.1-.87Zm2.23-1.98c0-.15.05-.25.15-.35.1-.1.22-.15.35-.15.15,0,.27.05.37.12.1.1.12.22.12.37s-.02.27-.12.35c-.1.1-.22.15-.37.15-.12,0-.25-.05-.35-.15-.1-.1-.15-.22-.15-.35h0Zm-.62,6.22l.57-4.24h.74l-.57,4.24h-.74Zm2.25,0l.57-4.24h.69l-.1.69c.25-.27.47-.5.74-.64.25-.12.54-.2.84-.2.42,0,.72.12.97.35.22.22.35.52.35.89v.22c0,.07-.02.17-.02.25l-.35,2.68h-.74l.32-2.6v-.07c.02-.15.05-.25.05-.3,0-.27-.07-.45-.25-.59-.15-.12-.37-.2-.67-.2-.4,0-.69.15-.94.42-.22.27-.4.67-.45,1.21l-.3,2.13h-.72Zm9.14-2.01l-3.39.02v.07c0,.45.12.79.35,1.07.22.25.55.4.94.4.25,0,.5-.07.69-.2.2-.12.42-.3.62-.55l.5.4c-.25.32-.52.57-.82.72-.3.17-.62.25-.97.25-.62,0-1.11-.2-1.49-.57-.37-.37-.57-.89-.57-1.54,0-.69.22-1.29.64-1.76.45-.45.99-.69,1.64-.69.59,0,1.04.17,1.36.55.32.35.5.87.5,1.51v.32h0Zm-.72-.59c0-.37-.1-.67-.3-.87-.2-.22-.5-.32-.87-.32-.35,0-.67.12-.94.32-.25.22-.42.52-.5.87h2.6Zm3.52,2.11c.4,0,.74-.17,1.04-.52.27-.35.42-.77.42-1.26,0-.45-.12-.79-.35-1.04-.22-.27-.5-.4-.87-.4-.47,0-.84.15-1.14.5-.3.32-.45.74-.45,1.26,0,.42.12.79.37,1.04.25.27.57.42.97.42h0Zm2.11-6.66h.74l-.94,7.16h-.74l.1-.64c-.2.27-.42.5-.67.62s-.55.2-.87.2c-.55,0-.97-.2-1.31-.59-.35-.4-.5-.92-.5-1.54,0-.69.2-1.29.59-1.73.42-.47.94-.69,1.56-.69.37,0,.69.1.94.25.27.17.47.42.59.77l.5-3.79Zm6.61,3.62c-.1-.02-.17-.07-.25-.1-.1,0-.17-.02-.25-.02-.32,0-.59.15-.77.42-.2.25-.32.67-.4,1.24l-.27,2.01h-.72l.55-4.24h.74l-.12.67c.2-.27.4-.5.59-.62.2-.12.42-.2.64-.2.07,0,.15.02.22.02.05.02.12.05.2.07l-.17.74Zm4.53,1.54l-3.37.02v.07c0,.45.1.79.35,1.07.22.25.54.4.94.4.25,0,.47-.07.69-.2.2-.12.4-.3.59-.55l.52.4c-.25.32-.52.57-.82.72-.3.17-.62.25-.97.25-.62,0-1.11-.2-1.49-.57-.37-.37-.57-.89-.57-1.54,0-.69.22-1.29.64-1.76.45-.45.97-.69,1.64-.69.57,0,1.04.17,1.36.55.32.35.5.87.5,1.51v.2s0,.1-.02.12h0Zm-.69-.59c0-.37-.1-.67-.3-.87-.22-.22-.5-.32-.87-.32s-.67.12-.94.32c-.25.22-.42.52-.52.87h2.63Zm2.25,2.6h-.74l.94-7.16h.74l-.94,7.16Zm5.52-2.01l-3.37.02v.07c0,.45.1.79.35,1.07.22.25.54.4.94.4.25,0,.47-.07.69-.2.2-.12.4-.3.59-.55l.52.4c-.25.32-.52.57-.82.72-.3.17-.62.25-.97.25-.64,0-1.14-.2-1.51-.57-.37-.37-.55-.89-.55-1.54,0-.69.22-1.29.64-1.76.42-.45.97-.69,1.61-.69.59,0,1.07.17,1.39.55.32.35.5.87.5,1.51,0,.1,0,.15-.02.2v.12h0Zm-.69-.59c0-.37-.12-.67-.32-.87-.2-.22-.47-.32-.84-.32s-.67.12-.94.32c-.27.22-.45.52-.52.87h2.63Zm3.52,2.11c.4,0,.74-.17,1.04-.52.27-.35.42-.77.42-1.26,0-.45-.1-.79-.32-1.04-.22-.27-.52-.4-.89-.4-.45,0-.84.15-1.14.5-.3.32-.45.74-.45,1.26,0,.42.12.79.37,1.04.25.27.57.42.97.42h0Zm1.73-3.74h.74l-.57,4.24h-.74l.12-.64c-.22.27-.45.5-.69.62-.25.12-.54.2-.84.2-.55,0-.99-.2-1.34-.59-.32-.4-.5-.92-.5-1.54,0-.69.2-1.29.62-1.73.4-.47.92-.69,1.56-.69.37,0,.67.1.94.25.25.17.45.42.59.77l.1-.87Zm1.26,3.62l.47-.55c.17.25.35.42.55.55.17.12.4.2.64.2s.47-.07.62-.2.22-.27.22-.5-.2-.45-.64-.64c-.1-.05-.2-.07-.27-.12-.4-.2-.67-.37-.79-.55-.12-.15-.2-.37-.2-.62,0-.4.15-.69.42-.97.3-.25.67-.37,1.11-.37.27,0,.55.05.79.17.22.1.45.25.64.45l-.45.55c-.12-.17-.27-.3-.45-.4-.2-.07-.37-.12-.59-.12s-.4.05-.54.17c-.15.12-.22.27-.22.45,0,.22.27.45.79.67l.07.02c.42.17.69.37.84.55.12.17.2.4.2.67,0,.45-.15.77-.42,1.02-.27.25-.64.37-1.14.37-.35,0-.67-.07-.94-.2-.25-.12-.5-.32-.72-.59h0Zm8.22-1.39l-3.39.02v.07c0,.45.12.79.35,1.07.22.25.54.4.94.4.25,0,.5-.07.69-.2s.42-.3.62-.55l.5.4c-.25.32-.52.57-.82.72-.3.17-.62.25-.97.25-.62,0-1.11-.2-1.49-.57-.37-.37-.57-.89-.57-1.54,0-.69.22-1.29.64-1.76.45-.45.97-.69,1.64-.69.59,0,1.04.17,1.36.55.32.35.5.87.5,1.51v.32h0Zm-.72-.59c0-.37-.1-.67-.3-.87-.2-.22-.5-.32-.87-.32-.35,0-.67.12-.94.32-.25.22-.42.52-.5.87h2.6Zm7.95-.52c-.22-.22-.45-.4-.67-.5-.25-.1-.5-.15-.77-.15-.47,0-.89.17-1.19.5-.32.35-.47.79-.47,1.36,0,.45.12.79.4,1.07.27.27.64.4,1.07.4.22,0,.45-.02.64-.12.2-.07.45-.22.69-.42l-.12.79c-.17.12-.37.22-.59.27-.22.07-.47.1-.74.1-.62,0-1.11-.2-1.51-.57-.37-.4-.57-.89-.57-1.54,0-.72.22-1.31.69-1.76.45-.47,1.04-.69,1.76-.69.27,0,.52.05.77.1.25.07.47.2.72.35l-.1.82Zm2.68,2.63c.4,0,.74-.17,1.04-.52.27-.35.42-.77.42-1.26,0-.45-.1-.79-.32-1.04-.22-.27-.52-.4-.89-.4-.47,0-.84.15-1.14.5-.3.32-.45.74-.45,1.26,0,.42.12.79.37,1.04.25.27.57.42.97.42h0Zm1.73-3.74h.74l-.57,4.24h-.74l.1-.64c-.2.27-.42.5-.67.62-.25.12-.55.2-.84.2-.55,0-.99-.2-1.34-.59-.32-.4-.5-.92-.5-1.54,0-.69.2-1.29.62-1.73.4-.47.92-.69,1.54-.69.4,0,.69.1.97.25.25.17.45.42.59.77l.1-.87Zm4.01.55c-.42,0-.77.17-1.04.52-.3.32-.45.74-.45,1.26,0,.42.12.77.35,1.02.22.27.52.4.87.4.47,0,.87-.17,1.16-.5.3-.32.45-.74.45-1.26,0-.42-.12-.77-.37-1.04-.25-.27-.57-.4-.97-.4h0Zm-2.75,5.75l.84-6.29h.72l-.1.67c.22-.27.45-.47.69-.62.25-.12.55-.2.84-.2.55,0,.97.2,1.31.59s.52.92.52,1.54c0,.67-.2,1.26-.62,1.71-.42.47-.92.69-1.54.69-.37,0-.69-.07-.94-.25-.27-.15-.45-.4-.59-.74l-.37,2.9h-.77Zm5.38-2.68l.47-.55c.15.25.32.42.52.55.2.12.4.2.64.2s.47-.07.62-.2c.17-.12.25-.27.25-.5s-.22-.45-.67-.64c-.1-.05-.2-.07-.25-.12-.42-.2-.67-.37-.82-.55-.12-.15-.2-.37-.2-.62,0-.4.15-.69.42-.97.3-.25.67-.37,1.11-.37.27,0,.55.05.79.17.22.1.45.25.64.45l-.45.55c-.12-.17-.27-.3-.45-.4-.17-.07-.37-.12-.59-.12s-.4.05-.55.17c-.15.12-.22.27-.22.45,0,.22.27.45.79.67l.07.02c.42.17.69.37.84.55.12.17.2.4.2.67,0,.45-.12.77-.42,1.02-.27.25-.64.37-1.11.37-.37,0-.67-.07-.94-.2-.27-.12-.52-.32-.72-.59h0Zm4.71-3.62h.74l-.25,1.88s-.02.12-.02.2c-.07.47-.1.79-.1.94,0,.22.07.4.22.52.17.12.4.2.67.2.37,0,.67-.1.82-.3.17-.2.32-.64.4-1.34l.27-2.11h.74l-.3,2.16s0,.07-.02.15c-.1.77-.27,1.29-.55,1.59-.15.17-.35.3-.59.4-.25.07-.5.12-.79.12-.5,0-.89-.12-1.16-.35-.3-.25-.45-.57-.45-.97,0-.15.02-.5.1-1.07l.02-.07.25-1.96Zm5.08,4.24h-.74l.94-7.16h.74l-.94,7.16Zm5.52-2.01l-3.37.02v.07c0,.45.1.79.35,1.07.22.25.55.4.94.4.25,0,.47-.07.69-.2.2-.12.4-.3.59-.55l.52.4c-.25.32-.52.57-.82.72-.3.17-.62.25-.97.25-.64,0-1.14-.2-1.51-.57-.37-.37-.55-.89-.55-1.54,0-.69.22-1.29.64-1.76.42-.45.97-.69,1.61-.69.59,0,1.07.17,1.39.55.32.35.5.87.5,1.51,0,.1,0,.15-.02.2v.12h0Zm-.69-.59c0-.37-.12-.67-.32-.87-.2-.22-.47-.32-.84-.32s-.67.12-.94.32c-.27.22-.45.52-.52.87h2.63Z"/>
                </g>
                <path class="cls-7" d="m281.03,44.64l.55-4.98h-4.98c-2.38,0-4.11-1.93-3.84-4.31h0c.25-2.38,2.43-4.31,4.78-4.31h4.98l.55-4.98c.25-2.35,2.4-4.31,4.78-4.31h0c2.38,0,4.11,1.96,3.84,4.31l-.54,4.98h4.98c2.38,0,4.09,1.93,3.84,4.31h0c-.27,2.38-2.43,4.31-4.78,4.31h-4.98l-.55,4.98c-.25,2.38-2.4,4.31-4.78,4.31h0c-2.38,0-4.11-1.93-3.84-4.31h0Z"/>
              </g>
            </g>
            <text class="cls-12" transform="translate(0 12.42)"><tspan x="0" y="0">In Dyspepsia and Abdominal Pain,</tspan></text>
          </g>
          <text class="cls-27" transform="translate(0 38.45)"><tspan x="0" y="0">Rx</tspan></text>
        </g>
        <g>
          <text class="cls-14" transform="translate(368.51 17.81)"><tspan x="0" y="0">POWER OF</tspan></text>
          <g class="cls-23">
            <g>
              <g>
                <path class="cls-15" d="m348.69,37.5v-.03c.06-.01.12,0,.18.02,2.99.89,5.99,1.78,8.98,2.67.21.06.22.05.2-.15-.1-1.33-.19-2.67-.29-4,0-.08,0-.17,0-.25.01,0,.02,0,.03,0,1.51,1.32,3.02,2.63,4.53,3.95,2.73,2.38,5.47,4.75,8.2,7.13.05.05.12.09.15.16-.1.01-.19-.02-.28-.05-.48-.13-.96-.26-1.44-.39-2.45-.65-4.9-1.31-7.34-1.96q-.26-.07-.24.2c.1,1.32.19,2.63.28,3.95,0,.08,0,.17,0,.25h-.03s-.06-.06-.1-.09c-1-.89-2-1.79-3-2.68-1.66-1.48-3.32-2.96-4.98-4.43-1.17-1.04-2.33-2.08-3.5-3.12-.44-.39-.89-.78-1.34-1.17Z"/>
                <path class="cls-15" d="m349.06,29.89v-.02s.06,0,.09.01c1.53.45,3.06.91,4.58,1.36.1.03.11.03.1-.08-.05-.68-.1-1.36-.15-2.04,0-.04,0-.09,0-.13,0,0,.01,0,.02,0,.77.67,1.54,1.34,2.31,2.01,1.39,1.21,2.79,2.43,4.18,3.64.03.02.06.04.07.08-.05,0-.1-.01-.14-.03-.25-.07-.49-.13-.74-.2-1.25-.33-2.5-.67-3.75-1q-.13-.04-.12.1c.05.67.1,1.34.15,2.01,0,.04,0,.09,0,.13h-.02s-.03-.03-.05-.05c-.51-.46-1.02-.91-1.53-1.37-.85-.75-1.7-1.51-2.54-2.26-.6-.53-1.19-1.06-1.79-1.59-.23-.2-.46-.4-.68-.6Z"/>
                <path class="cls-15" d="m340.62,31.54h0s.05-.01.08,0c1.31.39,2.62.78,3.94,1.17.09.03.09.02.09-.07-.04-.58-.08-1.17-.13-1.75,0-.04,0-.07,0-.11,0,0,0,0,.01,0,.66.58,1.32,1.15,1.99,1.73,1.2,1.04,2.4,2.08,3.59,3.12.02.02.05.04.06.07-.04,0-.08-.01-.12-.02-.21-.06-.42-.11-.63-.17-1.07-.29-2.15-.57-3.22-.86q-.12-.03-.11.09c.04.58.08,1.15.12,1.73,0,.04,0,.07,0,.11h-.01s-.03-.03-.04-.04c-.44-.39-.88-.78-1.32-1.17-.73-.65-1.46-1.3-2.18-1.94-.51-.45-1.02-.91-1.53-1.37-.19-.17-.39-.34-.59-.51Z"/>
              </g>
              <g>
                <path class="cls-3" d="m392.2,43.23c6.55,0,15.85,2.89,24.38,7.62l9.91-18.29c-9.45-6.1-21.95-9.6-33.98-9.6s-21.77,3.78-27.56,10.86l2.4,4.15,7.95,13.76h-15.83c.61,15.68,13.33,21,29.23,25.17,3.77,1.06,6.76,1.91,8.94,2.81-7.75-8.87-12.11-20.29-12.14-32.2,0,0,0-.01,0-.02v-.3c0-2.29,2.29-3.96,6.7-3.96"/>
                <path class="cls-9" d="m428.16,81.02c0-16-12.95-21.64-29.26-26.21-8.67-2.59-13.4-4.11-13.41-7.3.03,11.91,4.39,23.34,12.14,32.2,2.85,1.17,4.32,2.39,4.32,4.2v.15c.46,7.65-3.17,14.97-9.53,19.25-4.55,3.06-10.01,4.23-15.28,3.45,5.64,1.44,11.48,2.15,17.34,2.15,20.12,0,33.68-9.45,33.68-27.58v-.3Z"/>
                <path class="cls-1" d="m394.64,88.64c-8.53,0-18.9-3.2-28.35-9.45l-10.82,17.53c4.82,3.47,10.06,6.19,15.53,8.16,2.02.73,4.07,1.35,6.14,1.88,5.27.79,10.73-.39,15.28-3.45,6.36-4.28,9.98-11.6,9.53-19.25v.15c0,2.9-2.29,4.42-7.32,4.42"/>
                <g class="cls-24">
                  <path class="cls-6" d="m378.61,49.33c1.86-10.34,9.13-18.88,19.05-22.35,4.26-1.49,8.73-1.95,13.06-1.44-5.88-1.68-12.11-2.59-18.21-2.59-11.86,0-21.77,3.78-27.56,10.86l2.4,4.15,7.95,13.76h-15.83c.61,15.68,13.33,21,29.23,25.17-8.09-6.7-11.94-17.24-10.08-27.58"/>
                </g>
                <g class="cls-18">
                  <path class="cls-2" d="m397.63,79.72c-5.36-8.05-7.62-17.76-6.36-27.35-3.77-1.41-5.76-2.78-5.78-4.85.03,11.91,4.39,23.33,12.14,32.2"/>
                </g>
                <g class="cls-17">
                  <path class="cls-2" d="m394.64,88.64c.81,4.9-.74,9.89-4.18,13.46-3.45,3.57-8.38,5.3-13.31,4.66,5.27.79,10.73-.39,15.28-3.45,6.36-4.28,9.98-11.6,9.53-19.25v.15c0,2.9-2.29,4.42-7.32,4.42"/>
                </g>
              </g>
            </g>
          </g>
          <g class="cls-26">
            <g>
              <g>
                <path class="cls-15" d="m348.69,37.5v-.03c.06-.01.12,0,.18.02,2.99.89,5.99,1.78,8.98,2.67.21.06.22.05.2-.15-.1-1.33-.19-2.67-.29-4,0-.08,0-.17,0-.25.01,0,.02,0,.03,0,1.51,1.32,3.02,2.63,4.53,3.95,2.73,2.38,5.47,4.75,8.2,7.13.05.05.12.09.15.16-.1.01-.19-.02-.28-.05-.48-.13-.96-.26-1.44-.39-2.45-.65-4.9-1.31-7.34-1.96q-.26-.07-.24.2c.1,1.32.19,2.63.28,3.95,0,.08,0,.17,0,.25h-.03s-.06-.06-.1-.09c-1-.89-2-1.79-3-2.68-1.66-1.48-3.32-2.96-4.98-4.43-1.17-1.04-2.33-2.08-3.5-3.12-.44-.39-.89-.78-1.34-1.17Z"/>
                <path class="cls-15" d="m349.06,29.89v-.02s.06,0,.09.01c1.53.45,3.06.91,4.58,1.36.1.03.11.03.1-.08-.05-.68-.1-1.36-.15-2.04,0-.04,0-.09,0-.13,0,0,.01,0,.02,0,.77.67,1.54,1.34,2.31,2.01,1.39,1.21,2.79,2.43,4.18,3.64.03.02.06.04.07.08-.05,0-.1-.01-.14-.03-.25-.07-.49-.13-.74-.2-1.25-.33-2.5-.67-3.75-1q-.13-.04-.12.1c.05.67.1,1.34.15,2.01,0,.04,0,.09,0,.13h-.02s-.03-.03-.05-.05c-.51-.46-1.02-.91-1.53-1.37-.85-.75-1.7-1.51-2.54-2.26-.6-.53-1.19-1.06-1.79-1.59-.23-.2-.46-.4-.68-.6Z"/>
                <path class="cls-15" d="m340.62,31.54h0s.05-.01.08,0c1.31.39,2.62.78,3.94,1.17.09.03.09.02.09-.07-.04-.58-.08-1.17-.13-1.75,0-.04,0-.07,0-.11,0,0,0,0,.01,0,.66.58,1.32,1.15,1.99,1.73,1.2,1.04,2.4,2.08,3.59,3.12.02.02.05.04.06.07-.04,0-.08-.01-.12-.02-.21-.06-.42-.11-.63-.17-1.07-.29-2.15-.57-3.22-.86q-.12-.03-.11.09c.04.58.08,1.15.12,1.73,0,.04,0,.07,0,.11h-.01s-.03-.03-.04-.04c-.44-.39-.88-.78-1.32-1.17-.73-.65-1.46-1.3-2.18-1.94-.51-.45-1.02-.91-1.53-1.37-.19-.17-.39-.34-.59-.51Z"/>
              </g>
              <g>
                <path class="cls-3" d="m392.2,43.23c6.55,0,15.85,2.89,24.38,7.62l9.91-18.29c-9.45-6.1-21.95-9.6-33.98-9.6s-21.77,3.78-27.56,10.86l2.4,4.15,7.95,13.76h-15.83c.61,15.68,13.33,21,29.23,25.17,3.77,1.06,6.76,1.91,8.94,2.81-7.75-8.87-12.11-20.29-12.14-32.2,0,0,0-.01,0-.02v-.3c0-2.29,2.29-3.96,6.7-3.96"/>
                <path class="cls-8" d="m428.16,81.02c0-16-12.95-21.64-29.26-26.21-8.67-2.59-13.4-4.11-13.41-7.3.03,11.91,4.39,23.34,12.14,32.2,2.85,1.17,4.32,2.39,4.32,4.2v.15c.46,7.65-3.17,14.97-9.53,19.25-4.55,3.06-10.01,4.23-15.28,3.45,5.64,1.44,11.48,2.15,17.34,2.15,20.12,0,33.68-9.45,33.68-27.58v-.3Z"/>
                <path class="cls-4" d="m394.64,88.64c-8.53,0-18.9-3.2-28.35-9.45l-10.82,17.53c4.82,3.47,10.06,6.19,15.53,8.16,2.02.73,4.07,1.35,6.14,1.88,5.27.79,10.73-.39,15.28-3.45,6.36-4.28,9.98-11.6,9.53-19.25v.15c0,2.9-2.29,4.42-7.32,4.42"/>
                <g class="cls-16">
                  <path class="cls-6" d="m378.61,49.33c1.86-10.34,9.13-18.88,19.05-22.35,4.26-1.49,8.73-1.95,13.06-1.44-5.88-1.68-12.11-2.59-18.21-2.59-11.86,0-21.77,3.78-27.56,10.86l2.4,4.15,7.95,13.76h-15.83c.61,15.68,13.33,21,29.23,25.17-8.09-6.7-11.94-17.24-10.08-27.58"/>
                </g>
                <g class="cls-25">
                  <path class="cls-2" d="m397.63,79.72c-5.36-8.05-7.62-17.76-6.36-27.35-3.77-1.41-5.76-2.78-5.78-4.85.03,11.91,4.39,23.33,12.14,32.2"/>
                </g>
                <g class="cls-19">
                  <path class="cls-2" d="m394.64,88.64c.81,4.9-.74,9.89-4.18,13.46-3.45,3.57-8.38,5.3-13.31,4.66,5.27.79,10.73-.39,15.28-3.45,6.36-4.28,9.98-11.6,9.53-19.25v.15c0,2.9-2.29,4.42-7.32,4.42"/>
                </g>
              </g>
            </g>
          </g>
          <text class="cls-11" transform="translate(349.58 74.9)"><tspan x="0" y="0">OMEPRAZOLE</tspan></text>
        </g>
      </g>
    </g>
  </g>
</svg>